<svg xmlns="http://www.w3.org/2000/svg" xmlns:xlink="http://www.w3.org/1999/xlink" width="500" zoomAndPan="magnify" viewBox="0 0 375 374.999991" height="500" preserveAspectRatio="xMidYMid meet" version="1.0"><defs><clipPath id="b45e9e493d"><path d="M 37.5 0 L 330.75 0 L 330.75 375 L 37.5 375 Z M 37.5 0 " clip-rule="nonzero"/></clipPath></defs><g clip-path="url(#b45e9e493d)"><path fill="#ffc090" d="M 324.886719 199.21875 C 328.125 199.21875 330.75 196.597656 330.75 193.359375 C 330.75 190.121094 328.125 187.5 324.886719 187.5 L 319.019531 187.5 L 319.019531 175.78125 L 324.886719 175.78125 C 328.125 175.78125 330.75 173.160156 330.75 169.921875 C 330.75 166.683594 328.125 164.0625 324.886719 164.0625 L 319.019531 164.0625 L 319.019531 146.484375 C 319.019531 144.15625 317.640625 142.050781 315.507812 141.117188 L 224.464844 101.324219 L 220.078125 79.410156 L 289.695312 44.636719 L 289.695312 52.734375 L 283.828125 52.734375 C 280.589844 52.734375 277.964844 55.355469 277.964844 58.59375 C 277.964844 61.832031 280.589844 64.453125 283.828125 64.453125 L 289.695312 64.453125 L 289.695312 76.171875 L 283.828125 76.171875 C 280.589844 76.171875 277.964844 78.792969 277.964844 82.03125 C 277.964844 85.269531 280.589844 87.890625 283.828125 87.890625 L 289.695312 87.890625 L 289.695312 99.609375 L 283.828125 99.609375 C 280.589844 99.609375 277.964844 102.230469 277.964844 105.46875 C 277.964844 108.707031 280.589844 111.328125 283.828125 111.328125 L 307.289062 111.328125 C 310.527344 111.328125 313.15625 108.707031 313.15625 105.46875 C 313.15625 102.230469 310.527344 99.609375 307.289062 99.609375 L 301.425781 99.609375 L 301.425781 87.890625 L 307.289062 87.890625 C 310.527344 87.890625 313.15625 85.269531 313.15625 82.03125 C 313.15625 78.792969 310.527344 76.171875 307.289062 76.171875 L 301.425781 76.171875 L 301.425781 64.453125 L 307.289062 64.453125 C 310.527344 64.453125 313.15625 61.832031 313.15625 58.59375 C 313.15625 55.355469 310.527344 52.734375 307.289062 52.734375 L 301.425781 52.734375 L 301.425781 35.15625 C 301.425781 31.917969 298.800781 29.296875 295.558594 29.296875 L 219.316406 29.296875 L 219.316406 23.4375 C 219.316406 21.375 218.234375 19.472656 216.46875 18.410156 L 187.144531 0.832031 C 185.28125 -0.277344 182.96875 -0.277344 181.105469 0.832031 L 151.78125 18.410156 C 150.015625 19.472656 148.933594 21.375 148.933594 23.4375 L 148.933594 29.296875 L 72.691406 29.296875 C 69.449219 29.296875 66.824219 31.917969 66.824219 35.15625 L 66.824219 52.734375 L 60.960938 52.734375 C 57.722656 52.734375 55.09375 55.355469 55.09375 58.59375 C 55.09375 61.832031 57.722656 64.453125 60.960938 64.453125 L 66.824219 64.453125 L 66.824219 76.171875 L 60.960938 76.171875 C 57.722656 76.171875 55.09375 78.792969 55.09375 82.03125 C 55.09375 85.269531 57.722656 87.890625 60.960938 87.890625 L 66.824219 87.890625 L 66.824219 99.609375 L 60.960938 99.609375 C 57.722656 99.609375 55.09375 102.230469 55.09375 105.46875 C 55.09375 108.707031 57.722656 111.328125 60.960938 111.328125 L 84.421875 111.328125 C 87.660156 111.328125 90.285156 108.707031 90.285156 105.46875 C 90.285156 102.230469 87.660156 99.609375 84.421875 99.609375 L 78.554688 99.609375 L 78.554688 87.890625 L 84.421875 87.890625 C 87.660156 87.890625 90.285156 85.269531 90.285156 82.03125 C 90.285156 78.792969 87.660156 76.171875 84.421875 76.171875 L 78.554688 76.171875 L 78.554688 64.453125 L 84.421875 64.453125 C 87.660156 64.453125 90.285156 61.832031 90.285156 58.59375 C 90.285156 55.355469 87.660156 52.734375 84.421875 52.734375 L 78.554688 52.734375 L 78.554688 44.636719 L 148.171875 79.410156 L 143.785156 101.324219 L 52.742188 141.117188 C 50.609375 142.050781 49.230469 144.15625 49.230469 146.484375 L 49.230469 164.0625 L 43.363281 164.0625 C 40.125 164.0625 37.5 166.683594 37.5 169.921875 C 37.5 173.160156 40.125 175.78125 43.363281 175.78125 L 49.230469 175.78125 L 49.230469 187.5 L 43.363281 187.5 C 40.125 187.5 37.5 190.121094 37.5 193.359375 C 37.5 196.597656 40.125 199.21875 43.363281 199.21875 L 49.230469 199.21875 L 49.230469 210.9375 L 43.363281 210.9375 C 40.125 210.9375 37.5 213.558594 37.5 216.796875 C 37.5 220.035156 40.125 222.65625 43.363281 222.65625 L 66.824219 222.65625 C 70.0625 222.65625 72.691406 220.035156 72.691406 216.796875 C 72.691406 213.558594 70.0625 210.9375 66.824219 210.9375 L 60.960938 210.9375 L 60.960938 199.21875 L 66.824219 199.21875 C 70.0625 199.21875 72.691406 196.597656 72.691406 193.359375 C 72.691406 190.121094 70.0625 187.5 66.824219 187.5 L 60.960938 187.5 L 60.960938 175.78125 L 66.824219 175.78125 C 70.0625 175.78125 72.691406 173.160156 72.691406 169.921875 C 72.691406 166.683594 70.0625 164.0625 66.824219 164.0625 L 60.960938 164.0625 L 60.960938 152.34375 L 141.421875 152.34375 L 131.566406 191.738281 L 86.003906 333.984375 L 78.554688 333.984375 C 77 333.984375 75.507812 334.601562 74.410156 335.699219 L 62.679688 347.417969 C 61.578125 348.519531 60.960938 350.007812 60.960938 351.5625 L 60.960938 369.140625 C 60.960938 372.378906 63.585938 375 66.824219 375 L 301.425781 375 C 304.664062 375 307.289062 372.378906 307.289062 369.140625 L 307.289062 351.5625 C 307.289062 350.007812 306.671875 348.519531 305.570312 347.417969 L 293.839844 335.699219 C 292.742188 334.601562 291.25 333.984375 289.695312 333.984375 L 282.246094 333.984375 L 236.683594 191.738281 L 226.828125 152.34375 L 307.289062 152.34375 L 307.289062 164.0625 L 301.425781 164.0625 C 298.1875 164.0625 295.558594 166.683594 295.558594 169.921875 C 295.558594 173.160156 298.1875 175.78125 301.425781 175.78125 L 307.289062 175.78125 L 307.289062 187.5 L 301.425781 187.5 C 298.1875 187.5 295.558594 190.121094 295.558594 193.359375 C 295.558594 196.597656 298.1875 199.21875 301.425781 199.21875 L 307.289062 199.21875 L 307.289062 210.9375 L 301.425781 210.9375 C 298.1875 210.9375 295.558594 213.558594 295.558594 216.796875 C 295.558594 220.035156 298.1875 222.65625 301.425781 222.65625 L 324.886719 222.65625 C 328.125 222.65625 330.75 220.035156 330.75 216.796875 C 330.75 213.558594 328.125 210.9375 324.886719 210.9375 L 319.019531 210.9375 L 319.019531 199.21875 Z M 197.617188 111.328125 L 154.800781 136.28125 L 154.800781 111.328125 Z M 213.449219 115.671875 L 213.449219 140.625 L 170.632812 140.625 Z M 219.316406 41.015625 L 270.714844 41.015625 L 219.316406 66.691406 Z M 207.585938 70.3125 L 173.40625 70.3125 L 207.585938 46.410156 Z M 194.84375 41.015625 L 160.664062 64.917969 L 160.664062 41.015625 Z M 148.933594 66.691406 L 97.535156 41.015625 L 148.933594 41.015625 Z M 159.609375 82.03125 L 208.640625 82.03125 L 212.160156 99.609375 L 156.089844 99.609375 Z M 143.070312 140.625 L 83.136719 140.625 L 143.070312 114.425781 Z M 197.230469 152.34375 L 146.226562 181.460938 L 153.515625 152.34375 Z M 140.449219 202.457031 L 173.359375 223.828125 L 123.164062 256.425781 Z M 156.992188 199.21875 L 211.257812 199.21875 L 184.125 216.835938 Z M 133.535156 263.671875 L 184.125 230.820312 L 234.714844 263.671875 Z M 117.089844 275.390625 L 166.53125 275.390625 L 101.476562 324.136719 Z M 184.125 276.855469 L 260.371094 333.984375 L 107.878906 333.984375 Z M 201.71875 275.390625 L 251.160156 275.390625 L 266.773438 324.136719 Z M 194.890625 223.828125 L 227.800781 202.457031 L 245.085938 256.425781 Z M 159.289062 187.5 L 215.503906 155.410156 L 223.535156 187.5 Z M 225.179688 114.425781 L 285.113281 140.625 L 225.179688 140.625 Z M 160.664062 26.753906 L 184.125 12.6875 L 207.585938 26.753906 L 207.585938 29.296875 L 160.664062 29.296875 Z M 295.558594 353.988281 L 295.558594 363.28125 L 72.691406 363.28125 L 72.691406 353.988281 L 80.984375 345.703125 L 287.265625 345.703125 Z M 295.558594 353.988281 " fill-opacity="1" fill-rule="nonzero"/></g></svg>