<svg xmlns="http://www.w3.org/2000/svg" xmlns:xlink="http://www.w3.org/1999/xlink" width="500" zoomAndPan="magnify" viewBox="0 0 375 374.999991" height="500" preserveAspectRatio="xMidYMid meet" version="1.0"><defs><g/><clipPath id="f527cbc69b"><path d="M 112 194 L 131 194 L 131 233 L 112 233 Z M 112 194 " clip-rule="nonzero"/></clipPath><clipPath id="766ee4a7b8"><path d="M 83.507812 215.71875 L 116.9375 192.789062 L 141.109375 228.023438 L 107.679688 250.953125 Z M 83.507812 215.71875 " clip-rule="nonzero"/></clipPath><clipPath id="7dcc69010b"><path d="M 116.832031 192.859375 L 83.402344 215.792969 L 107.574219 251.027344 L 141.003906 228.09375 Z M 116.832031 192.859375 " clip-rule="nonzero"/></clipPath><clipPath id="1d70b00afd"><path d="M 87 218 L 123 218 L 123 236 L 87 236 Z M 87 218 " clip-rule="nonzero"/></clipPath><clipPath id="ffe31184ff"><path d="M 83.507812 215.71875 L 116.9375 192.789062 L 141.109375 228.023438 L 107.679688 250.953125 Z M 83.507812 215.71875 " clip-rule="nonzero"/></clipPath><clipPath id="a6266d713e"><path d="M 116.832031 192.859375 L 83.402344 215.792969 L 107.574219 251.027344 L 141.003906 228.09375 Z M 116.832031 192.859375 " clip-rule="nonzero"/></clipPath><clipPath id="1e088b5be9"><path d="M 170 149 L 191 149 L 191 162 L 170 162 Z M 170 149 " clip-rule="nonzero"/></clipPath><clipPath id="35536fc2b8"><path d="M 146.472656 117.414062 L 186.777344 113.101562 L 191.789062 159.945312 L 151.484375 164.257812 Z M 146.472656 117.414062 " clip-rule="nonzero"/></clipPath><clipPath id="f6347fabf6"><path d="M 146.472656 117.414062 L 186.777344 113.101562 L 191.789062 159.945312 L 151.484375 164.257812 Z M 146.472656 117.414062 " clip-rule="nonzero"/></clipPath><clipPath id="893aeecf89"><path d="M 149 126 L 165 126 L 165 160 L 149 160 Z M 149 126 " clip-rule="nonzero"/></clipPath><clipPath id="d9ee179acc"><path d="M 146.472656 117.414062 L 186.777344 113.101562 L 191.789062 159.945312 L 151.484375 164.257812 Z M 146.472656 117.414062 " clip-rule="nonzero"/></clipPath><clipPath id="7e4ed55598"><path d="M 146.472656 117.414062 L 186.777344 113.101562 L 191.789062 159.945312 L 151.484375 164.257812 Z M 146.472656 117.414062 " clip-rule="nonzero"/></clipPath><clipPath id="c10d3b4e6e"><path d="M 165 113 L 183 113 L 183 160 L 165 160 Z M 165 113 " clip-rule="nonzero"/></clipPath><clipPath id="a79c2408c9"><path d="M 146.472656 117.414062 L 186.777344 113.101562 L 191.789062 159.945312 L 151.484375 164.257812 Z M 146.472656 117.414062 " clip-rule="nonzero"/></clipPath><clipPath id="a3d8959740"><path d="M 146.472656 117.414062 L 186.777344 113.101562 L 191.789062 159.945312 L 151.484375 164.257812 Z M 146.472656 117.414062 " clip-rule="nonzero"/></clipPath><clipPath id="b15631bff3"><path d="M 107.425781 156.878906 L 198.910156 156.878906 L 198.910156 233 L 107.425781 233 Z M 107.425781 156.878906 " clip-rule="nonzero"/></clipPath><clipPath id="a2b986917c"><path d="M 102 117.285156 L 113 117.285156 L 113 142 L 102 142 Z M 102 117.285156 " clip-rule="nonzero"/></clipPath><clipPath id="fbfef0f802"><path d="M 43.582031 149 L 66 149 L 66 162 L 43.582031 162 Z M 43.582031 149 " clip-rule="nonzero"/></clipPath><clipPath id="622a46952a"><path d="M 99 201 L 109 201 L 109 226.84375 L 99 226.84375 Z M 99 201 " clip-rule="nonzero"/></clipPath><clipPath id="d5c0f2df11"><path d="M 83.320312 158.222656 L 121.789062 158.222656 L 121.789062 196.695312 L 83.320312 196.695312 Z M 83.320312 158.222656 " clip-rule="nonzero"/></clipPath><clipPath id="5b72814512"><path d="M 102.554688 158.222656 C 91.929688 158.222656 83.320312 166.835938 83.320312 177.460938 C 83.320312 188.082031 91.929688 196.695312 102.554688 196.695312 C 113.175781 196.695312 121.789062 188.082031 121.789062 177.460938 C 121.789062 166.835938 113.175781 158.222656 102.554688 158.222656 " clip-rule="nonzero"/></clipPath><clipPath id="26c4f8d812"><path d="M 138 213 L 198 213 L 198 248 L 138 248 Z M 138 213 " clip-rule="nonzero"/></clipPath><clipPath id="282fac701f"><path d="M 173.328125 201.265625 L 199.757812 231.273438 L 165.230469 261.6875 L 138.796875 231.679688 Z M 173.328125 201.265625 " clip-rule="nonzero"/></clipPath><clipPath id="f56a0fb7f8"><path d="M 173.328125 201.265625 L 199.757812 231.273438 L 165.230469 261.6875 L 138.796875 231.679688 Z M 173.328125 201.265625 " clip-rule="nonzero"/></clipPath><clipPath id="d213a2ed81"><path d="M 161 190 L 196 190 L 196 231 L 161 231 Z M 161 190 " clip-rule="nonzero"/></clipPath><clipPath id="2f5b0cc559"><path d="M 153.140625 179.957031 L 201.789062 171.949219 L 210.152344 222.757812 L 161.507812 230.765625 Z M 153.140625 179.957031 " clip-rule="nonzero"/></clipPath><clipPath id="9a3e075cd4"><path d="M 201.917969 171.929688 L 153.269531 179.9375 L 161.632812 230.746094 L 210.28125 222.738281 Z M 201.917969 171.929688 " clip-rule="nonzero"/></clipPath><clipPath id="464b8042ca"><path d="M 187 173 L 202 173 L 202 196 L 187 196 Z M 187 173 " clip-rule="nonzero"/></clipPath><clipPath id="447248dc6d"><path d="M 153.140625 179.957031 L 201.789062 171.949219 L 210.152344 222.757812 L 161.507812 230.765625 Z M 153.140625 179.957031 " clip-rule="nonzero"/></clipPath><clipPath id="2d47c6177f"><path d="M 201.917969 171.929688 L 153.269531 179.9375 L 161.632812 230.746094 L 210.28125 222.738281 Z M 201.917969 171.929688 " clip-rule="nonzero"/></clipPath><clipPath id="7180d0983c"><path d="M 172 181 L 184 181 L 184 206 L 172 206 Z M 172 181 " clip-rule="nonzero"/></clipPath><clipPath id="0e565c7a16"><path d="M 153.140625 179.957031 L 201.789062 171.949219 L 210.152344 222.757812 L 161.507812 230.765625 Z M 153.140625 179.957031 " clip-rule="nonzero"/></clipPath><clipPath id="5eb6209e58"><path d="M 201.917969 171.929688 L 153.269531 179.9375 L 161.632812 230.746094 L 210.28125 222.738281 Z M 201.917969 171.929688 " clip-rule="nonzero"/></clipPath><clipPath id="10d488123a"><path d="M 174 207 L 199 207 L 199 218 L 174 218 Z M 174 207 " clip-rule="nonzero"/></clipPath><clipPath id="34111f8412"><path d="M 153.140625 179.957031 L 201.789062 171.949219 L 210.152344 222.757812 L 161.507812 230.765625 Z M 153.140625 179.957031 " clip-rule="nonzero"/></clipPath><clipPath id="a4dd701d7c"><path d="M 201.917969 171.929688 L 153.269531 179.9375 L 161.632812 230.746094 L 210.28125 222.738281 Z M 201.917969 171.929688 " clip-rule="nonzero"/></clipPath><clipPath id="de25d4519e"><path d="M 156 193 L 171 193 L 171 216 L 156 216 Z M 156 193 " clip-rule="nonzero"/></clipPath><clipPath id="b4da5f9c66"><path d="M 153.140625 179.957031 L 201.789062 171.949219 L 210.152344 222.757812 L 161.507812 230.765625 Z M 153.140625 179.957031 " clip-rule="nonzero"/></clipPath><clipPath id="bd2a4bbeb3"><path d="M 201.917969 171.929688 L 153.269531 179.9375 L 161.632812 230.746094 L 210.28125 222.738281 Z M 201.917969 171.929688 " clip-rule="nonzero"/></clipPath><clipPath id="523810eaef"><path d="M 186 195 L 207 195 L 207 204 L 186 204 Z M 186 195 " clip-rule="nonzero"/></clipPath><clipPath id="97ea3e6aa5"><path d="M 153.140625 179.957031 L 201.789062 171.949219 L 210.152344 222.757812 L 161.507812 230.765625 Z M 153.140625 179.957031 " clip-rule="nonzero"/></clipPath><clipPath id="9993d1e652"><path d="M 201.917969 171.929688 L 153.269531 179.9375 L 161.632812 230.746094 L 210.28125 222.738281 Z M 201.917969 171.929688 " clip-rule="nonzero"/></clipPath><clipPath id="519ccdf222"><path d="M 186 198 L 197 198 L 197 202 L 186 202 Z M 186 198 " clip-rule="nonzero"/></clipPath><clipPath id="715e2cba4a"><path d="M 153.140625 179.957031 L 201.789062 171.949219 L 210.152344 222.757812 L 161.507812 230.765625 Z M 153.140625 179.957031 " clip-rule="nonzero"/></clipPath><clipPath id="12faea6e0e"><path d="M 201.917969 171.929688 L 153.269531 179.9375 L 161.632812 230.746094 L 210.28125 222.738281 Z M 201.917969 171.929688 " clip-rule="nonzero"/></clipPath><clipPath id="235d94e4ba"><path d="M 174 211 L 187 211 L 187 215 L 174 215 Z M 174 211 " clip-rule="nonzero"/></clipPath><clipPath id="327b832b41"><path d="M 153.140625 179.957031 L 201.789062 171.949219 L 210.152344 222.757812 L 161.507812 230.765625 Z M 153.140625 179.957031 " clip-rule="nonzero"/></clipPath><clipPath id="b5ff2352dc"><path d="M 201.917969 171.929688 L 153.269531 179.9375 L 161.632812 230.746094 L 210.28125 222.738281 Z M 201.917969 171.929688 " clip-rule="nonzero"/></clipPath><clipPath id="07453c08e8"><path d="M 188 182 L 195 182 L 195 196 L 188 196 Z M 188 182 " clip-rule="nonzero"/></clipPath><clipPath id="df6976acad"><path d="M 153.140625 179.957031 L 201.789062 171.949219 L 210.152344 222.757812 L 161.507812 230.765625 Z M 153.140625 179.957031 " clip-rule="nonzero"/></clipPath><clipPath id="956cc5acfd"><path d="M 201.917969 171.929688 L 153.269531 179.9375 L 161.632812 230.746094 L 210.28125 222.738281 Z M 201.917969 171.929688 " clip-rule="nonzero"/></clipPath><clipPath id="2cf81700a4"><path d="M 179 191 L 181 191 L 181 205 L 179 205 Z M 179 191 " clip-rule="nonzero"/></clipPath><clipPath id="f8c54a82d1"><path d="M 153.140625 179.957031 L 201.789062 171.949219 L 210.152344 222.757812 L 161.507812 230.765625 Z M 153.140625 179.957031 " clip-rule="nonzero"/></clipPath><clipPath id="c122f3e269"><path d="M 201.917969 171.929688 L 153.269531 179.9375 L 161.632812 230.746094 L 210.28125 222.738281 Z M 201.917969 171.929688 " clip-rule="nonzero"/></clipPath><clipPath id="2f777caf20"><path d="M 165 202 L 170 202 L 170 215 L 165 215 Z M 165 202 " clip-rule="nonzero"/></clipPath><clipPath id="5b6123eb6e"><path d="M 153.140625 179.957031 L 201.789062 171.949219 L 210.152344 222.757812 L 161.507812 230.765625 Z M 153.140625 179.957031 " clip-rule="nonzero"/></clipPath><clipPath id="b14a6f1376"><path d="M 201.917969 171.929688 L 153.269531 179.9375 L 161.632812 230.746094 L 210.28125 222.738281 Z M 201.917969 171.929688 " clip-rule="nonzero"/></clipPath></defs><g clip-path="url(#f527cbc69b)"><g clip-path="url(#766ee4a7b8)"><g clip-path="url(#7dcc69010b)"><path fill="#b1d7b4" d="M 130.445312 217.128906 C 129.613281 212.664062 127.484375 208.535156 124.949219 204.773438 C 122.132812 200.589844 118.554688 196.605469 113.769531 194.972656 C 115.796875 198.46875 114.679688 202.855469 113.785156 206.808594 C 112.816406 211.117188 112.179688 215.585938 112.921875 219.925781 C 113.667969 224.265625 115.964844 228.496094 119.757812 230.734375 C 129.101562 236.246094 131.691406 223.824219 130.445312 217.128906 " fill-opacity="1" fill-rule="nonzero"/></g></g></g><g clip-path="url(#1d70b00afd)"><g clip-path="url(#ffe31184ff)"><g clip-path="url(#a6266d713e)"><path fill="#b1d7b4" d="M 87.101562 219.414062 C 88.453125 223.148438 90.890625 225.894531 93.546875 228.71875 C 95.976562 231.296875 99.128906 233.140625 102.480469 234.257812 C 106.484375 235.59375 110.773438 235.929688 115 235.714844 C 117.667969 235.578125 120.472656 235.164062 122.578125 233.515625 C 119.269531 232.132812 116.230469 230.121094 113.660156 227.628906 C 112.367188 226.375 111.492188 225.167969 110.625 223.628906 C 109.765625 222.105469 108.808594 220.507812 107.210938 219.652344 C 105.097656 218.527344 102.519531 219.039062 100.140625 219.390625 C 95.820312 220.027344 91.414062 220.035156 87.101562 219.414062 " fill-opacity="1" fill-rule="nonzero"/></g></g></g><g clip-path="url(#1e088b5be9)"><g clip-path="url(#35536fc2b8)"><g clip-path="url(#f6347fabf6)"><path fill="#b1d7b4" d="M 170.503906 161.917969 C 172.046875 157.96875 174.914062 154.5625 178.53125 152.371094 C 182.148438 150.183594 186.492188 149.230469 190.691406 149.703125 C 186.339844 156.566406 178.589844 161.359375 170.503906 161.917969 " fill-opacity="1" fill-rule="nonzero"/></g></g></g><g clip-path="url(#893aeecf89)"><g clip-path="url(#d9ee179acc)"><g clip-path="url(#7e4ed55598)"><path fill="#b1d7b4" d="M 163.75 159.875 C 165.363281 153.546875 164.835938 146.6875 162.28125 140.675781 C 159.726562 134.664062 155.15625 129.535156 149.488281 126.320312 C 148.761719 138.839844 154.148438 151.847656 163.75 159.875 " fill-opacity="1" fill-rule="nonzero"/></g></g></g><g clip-path="url(#c10d3b4e6e)"><g clip-path="url(#a79c2408c9)"><g clip-path="url(#a3d8959740)"><path fill="#b1d7b4" d="M 168.324219 159.203125 C 165.222656 151.308594 164.792969 142.390625 167.109375 134.238281 C 169.429688 126.082031 174.492188 118.742188 181.273438 113.691406 C 184.226562 129.699219 179.394531 147.320312 168.324219 159.203125 " fill-opacity="1" fill-rule="nonzero"/></g></g></g><path fill="#b1d7b4" d="M 194.527344 157.917969 L 108.363281 204.167969 L 111.808594 209.0625 L 184.171875 209.0625 L 197.96875 162.8125 Z M 194.527344 157.917969 " fill-opacity="1" fill-rule="nonzero"/><path fill="#f7f6dc" d="M 122.164062 157.917969 L 108.363281 204.167969 L 180.730469 204.167969 L 194.527344 157.917969 Z M 122.164062 157.917969 " fill-opacity="1" fill-rule="nonzero"/><path fill="#7fb77e" d="M 142.9375 209.0625 L 152.730469 209.0625 L 152.730469 232.015625 L 142.9375 232.015625 Z M 142.9375 209.0625 " fill-opacity="1" fill-rule="nonzero"/><g clip-path="url(#b15631bff3)"><path fill="#7fb77e" d="M 198.722656 162.285156 L 195.28125 157.386719 L 195.25 157.355469 C 195.21875 157.324219 195.1875 157.261719 195.15625 157.230469 L 195.125 157.199219 C 195.09375 157.167969 195.03125 157.136719 195 157.105469 L 194.96875 157.074219 C 194.84375 157.011719 194.71875 156.980469 194.589844 156.980469 L 122.164062 156.980469 C 121.757812 156.980469 121.378906 157.261719 121.253906 157.636719 L 107.457031 203.886719 L 107.457031 204.351562 C 107.457031 204.414062 107.488281 204.476562 107.519531 204.539062 C 107.519531 204.570312 107.550781 204.570312 107.550781 204.601562 C 107.582031 204.632812 107.582031 204.695312 107.613281 204.726562 L 111.054688 209.625 C 111.242188 209.875 111.523438 210.027344 111.839844 210.027344 L 142 210.027344 L 142 231.109375 L 126.105469 231.109375 C 125.574219 231.109375 125.167969 231.515625 125.167969 232.046875 C 125.167969 232.578125 125.574219 232.980469 126.105469 232.980469 L 169.5 232.980469 C 170.03125 232.980469 170.4375 232.578125 170.4375 232.046875 C 170.4375 231.515625 170.03125 231.109375 169.5 231.109375 L 153.636719 231.109375 L 153.636719 209.996094 L 184.171875 209.996094 C 184.578125 209.996094 184.957031 209.71875 185.082031 209.34375 L 198.878906 163.09375 C 198.941406 162.8125 198.910156 162.503906 198.722656 162.285156 Z M 193.277344 158.851562 L 189.242188 172.386719 L 173.097656 172.386719 L 177.132812 158.851562 Z M 148.445312 187.792969 L 132.300781 187.792969 L 136.335938 174.257812 L 152.480469 174.257812 Z M 154.449219 174.257812 L 170.59375 174.257812 L 166.558594 187.792969 L 150.414062 187.792969 Z M 147.878906 189.664062 L 143.84375 203.199219 L 127.699219 203.199219 L 131.738281 189.664062 Z M 149.851562 189.664062 L 165.996094 189.664062 L 161.960938 203.199219 L 145.816406 203.199219 Z M 167.933594 189.664062 L 184.078125 189.664062 L 180.042969 203.199219 L 163.898438 203.199219 Z M 168.5 187.792969 L 172.535156 174.257812 L 188.679688 174.257812 L 184.640625 187.792969 Z M 175.164062 158.851562 L 171.125 172.386719 L 154.984375 172.386719 L 159.050781 158.851562 Z M 157.078125 158.851562 L 153.042969 172.386719 L 136.898438 172.386719 L 140.933594 158.851562 Z M 122.851562 158.851562 L 138.996094 158.851562 L 134.960938 172.386719 L 118.816406 172.386719 Z M 118.25 174.257812 L 134.394531 174.257812 L 130.359375 187.792969 L 114.214844 187.792969 Z M 113.652344 189.664062 L 129.796875 189.664062 L 125.761719 203.199219 L 109.617188 203.199219 Z M 151.792969 231.046875 L 143.875 231.046875 L 143.875 209.996094 L 151.792969 209.996094 Z M 183.484375 208.125 L 112.308594 208.125 L 110.179688 205.101562 L 180.761719 205.101562 C 181.167969 205.101562 181.546875 204.820312 181.671875 204.445312 L 194.875 160.039062 L 196.9375 162.96875 Z M 183.484375 208.125 " fill-opacity="1" fill-rule="nonzero"/></g><path fill="#ffc090" d="M 111.496094 160.210938 C 111.378906 160.28125 111.261719 160.355469 111.144531 160.425781 C 111.515625 161.023438 111.886719 161.617188 112.257812 162.210938 C 112.371094 162.140625 112.488281 162.070312 112.601562 162 C 112.234375 161.402344 111.867188 160.808594 111.496094 160.210938 Z M 76.652344 181.386719 C 76.785156 181.3125 76.921875 181.234375 77.054688 181.15625 C 76.863281 180.15625 76.671875 179.152344 76.480469 178.152344 C 76.347656 178.179688 76.214844 178.210938 76.082031 178.238281 C 76.269531 179.289062 76.460938 180.339844 76.652344 181.386719 Z M 112.878906 163.054688 C 112.710938 163.105469 112.605469 163.261719 112.621094 163.429688 C 112.742188 164.609375 112.859375 165.789062 114.246094 166.605469 L 113.3125 163.296875 C 113.257812 163.109375 113.066406 163.003906 112.878906 163.054688 Z M 105.644531 170.246094 C 103.132812 169.824219 101.566406 170.8125 100.230469 172.367188 C 99.554688 173.15625 99.527344 173.902344 100.003906 174.808594 C 101.355469 177.367188 104.800781 179.335938 107.652344 179.136719 C 109.085938 179.039062 110.132812 178.375 110.664062 177.046875 C 112.066406 173.542969 112.921875 170.09375 111.71875 166.195312 C 110.90625 163.5625 110.0625 161.304688 107.933594 159.375 C 105.84375 157.484375 103.566406 156.859375 100.933594 156.714844 C 97.683594 156.535156 94.820312 157.65625 91.863281 158.847656 C 87.71875 160.515625 85.195312 163.226562 84.648438 167.6875 C 84.265625 170.800781 83.855469 173.910156 83.566406 177.03125 C 83.273438 180.171875 84.5625 183.050781 85.292969 186.011719 C 85.597656 187.257812 86.167969 188.441406 86.652344 189.640625 C 87.539062 191.835938 88.625 193.902344 90.433594 195.511719 C 90.933594 195.957031 91.292969 196.5625 91.714844 197.09375 C 91.597656 197.25 91.480469 197.410156 91.363281 197.566406 C 90.648438 197.152344 89.882812 196.804688 89.230469 196.308594 C 86.015625 193.863281 82.828125 191.371094 79.628906 188.898438 C 77.203125 187.023438 75.921875 184.378906 75.101562 181.566406 C 73.894531 177.425781 73.851562 173.105469 73.714844 168.832031 C 73.578125 164.421875 75.097656 160.328125 77.015625 156.503906 C 77.945312 154.648438 79.832031 153.171875 81.527344 151.828125 C 84.070312 149.816406 87.164062 148.730469 90.15625 147.578125 C 94.679688 145.835938 99.371094 146.125 104.011719 147.085938 C 106.054688 147.507812 108.140625 148.054688 110.003906 148.964844 C 113.023438 150.441406 115.824219 152.269531 117.929688 155.066406 C 120.675781 158.714844 122.894531 162.609375 124.28125 166.945312 C 125.742188 171.511719 126.195312 176.257812 124.800781 180.828125 C 123.921875 183.703125 122.808594 186.757812 119.996094 188.621094 C 118.792969 189.417969 117.789062 190.535156 116.546875 191.253906 C 112.941406 193.34375 109.066406 193.753906 105.046875 192.695312 C 103.558594 192.300781 102.085938 191.851562 100.605469 191.421875 C 99.523438 191.109375 98.492188 190.820312 97.78125 189.746094 C 97.425781 189.214844 96.578125 189 95.941406 188.671875 C 94.640625 188 93.574219 187.210938 93.144531 185.648438 C 92.253906 182.414062 90.34375 179.484375 90.25 176.003906 C 90.144531 172.304688 91.425781 169 93.234375 165.878906 C 93.890625 164.746094 94.839844 163.867188 96.308594 163.78125 C 97.746094 163.691406 99.175781 163.460938 100.613281 163.394531 C 101.050781 163.371094 101.589844 163.582031 101.945312 163.863281 C 103.890625 165.386719 105.109375 167.363281 105.644531 170.246094 " fill-opacity="1" fill-rule="nonzero"/><path fill="#ffc090" d="M 130.417969 159.449219 C 129.453125 157.769531 128.621094 156.316406 127.832031 154.9375 C 128.003906 154.558594 128.054688 154.289062 128.210938 154.125 C 129.785156 152.472656 131.613281 151.085938 132.9375 149.164062 C 133.570312 148.25 134.660156 147.898438 135.824219 147.613281 C 137.09375 147.300781 138.226562 146.417969 139.398438 145.746094 C 139.796875 145.519531 140.105469 144.960938 140.492188 144.925781 C 142.804688 144.714844 145.125 144.550781 147.445312 144.542969 C 147.808594 144.539062 148.421875 145.375 148.496094 145.886719 C 148.847656 148.339844 148.277344 150.769531 146.375 152.269531 C 142.109375 155.636719 137.488281 158.472656 132.027344 159.550781 C 131.714844 159.613281 131.386719 159.621094 131.070312 159.601562 C 130.832031 159.589844 130.601562 159.492188 130.417969 159.449219 " fill-opacity="1" fill-rule="nonzero"/><g clip-path="url(#a2b986917c)"><path fill="#ffc090" d="M 109.9375 117.359375 C 110.753906 118.597656 111.394531 119.320312 111.746094 120.164062 C 112.199219 121.246094 112.605469 122.40625 112.707031 123.5625 C 113.101562 127.996094 112.070312 132.265625 111.015625 136.527344 C 110.839844 137.234375 110.652344 137.941406 110.429688 138.632812 C 109.726562 140.828125 109.121094 141.210938 106.746094 141.015625 C 106.421875 140.988281 106.078125 140.910156 105.777344 140.984375 C 103.292969 141.589844 102.800781 140.617188 102.488281 138.324219 C 102.195312 136.171875 102.207031 133.957031 102.277344 131.773438 C 102.386719 128.390625 104.15625 125.59375 105.84375 122.835938 C 107.007812 120.9375 108.511719 119.242188 109.9375 117.359375 " fill-opacity="1" fill-rule="nonzero"/></g><path fill="#ffc090" d="M 116.363281 199.757812 C 118.171875 198.476562 119.351562 198.679688 120.953125 199.835938 C 124.246094 202.214844 126.570312 205.132812 127.839844 208.957031 C 128.707031 211.566406 129.707031 214.136719 130.457031 216.78125 C 130.921875 218.414062 130.625 218.695312 129.042969 219.292969 C 128.015625 219.679688 126.859375 220.582031 126.007812 220.347656 C 125.128906 220.101562 124.589844 218.726562 123.832031 217.914062 C 122.679688 216.683594 121.167969 215.695312 120.335938 214.289062 C 117.703125 209.835938 116.117188 205.027344 116.363281 199.757812 " fill-opacity="1" fill-rule="nonzero"/><path fill="#ffc090" d="M 130.691406 175.109375 C 131.003906 174.171875 131.328125 173.574219 131.386719 172.949219 C 131.613281 170.582031 133.195312 169.605469 135.230469 169.191406 C 139.855469 168.242188 144.441406 168.523438 148.859375 170.1875 C 150.085938 170.652344 151.191406 171.601562 152.175781 172.511719 C 153.144531 173.40625 152.898438 174.769531 151.78125 175.652344 C 149.644531 177.34375 147.273438 178.421875 144.496094 178.636719 C 140.722656 178.933594 137.042969 178.6875 133.589844 177.003906 C 132.546875 176.492188 131.625 175.726562 130.691406 175.109375 " fill-opacity="1" fill-rule="nonzero"/><path fill="#ffc090" d="M 82.320312 119.824219 C 84.738281 120.835938 86.699219 122.214844 88.1875 124.148438 C 89.367188 125.671875 90.328125 127.371094 91.382812 128.992188 C 93.335938 131.988281 93.761719 135.328125 93.417969 138.773438 C 93.300781 139.960938 92.691406 141.097656 92.210938 142.554688 C 91.425781 142.234375 90.445312 142.046875 89.730469 141.511719 C 83.6875 136.996094 80.804688 130.839844 80.574219 123.367188 C 80.5625 122.941406 80.761719 122.464844 80.984375 122.082031 C 81.214844 121.683594 81.636719 121.402344 81.886719 121.015625 C 82.082031 120.710938 82.148438 120.316406 82.320312 119.824219 " fill-opacity="1" fill-rule="nonzero"/><path fill="#ffc090" d="M 127.910156 189.542969 C 129.042969 188.578125 130.027344 187.546875 131.199219 186.824219 C 131.75 186.484375 132.761719 186.507812 133.40625 186.765625 C 137.410156 188.371094 140.8125 190.808594 143.863281 193.921875 C 145.625 195.71875 146.476562 197.675781 147.003906 199.96875 C 147.25 201.039062 146.945312 201.675781 145.847656 201.925781 C 142.941406 202.582031 140.121094 202.074219 137.714844 200.519531 C 133.734375 197.949219 130.527344 194.519531 128.195312 190.335938 C 128.046875 190.0625 127.980469 189.742188 127.910156 189.542969 " fill-opacity="1" fill-rule="nonzero"/><path fill="#ffc090" d="M 116.953125 143.066406 C 117.308594 142.015625 117.449219 141.179688 117.851562 140.507812 C 119.007812 138.570312 120.167969 136.617188 121.519531 134.816406 C 123.019531 132.8125 124.691406 130.9375 126.367188 129.070312 C 127.246094 128.085938 128.292969 127.28125 129.730469 128.191406 C 129.855469 128.269531 130.050781 128.226562 130.207031 128.265625 C 133.503906 129.09375 133.988281 130.097656 132.214844 133.152344 C 130.550781 136.015625 128.734375 138.796875 126.851562 141.519531 C 125.304688 143.757812 123.589844 145.886719 121.894531 148.015625 C 121.085938 149.023438 120.070312 149.171875 119.472656 148.199219 C 118.449219 146.539062 117.730469 144.691406 116.953125 143.066406 " fill-opacity="1" fill-rule="nonzero"/><path fill="#ffc090" d="M 60.828125 208.613281 C 58.511719 208.714844 58.140625 208.160156 58.328125 206.402344 C 58.492188 204.859375 59.15625 203.730469 60.199219 202.644531 C 62.492188 200.257812 64.609375 197.699219 66.96875 195.382812 C 68.101562 194.273438 69.613281 193.546875 70.964844 192.664062 C 71.921875 192.042969 72.8125 192.269531 73.625 192.972656 C 74.289062 193.546875 74.996094 194.09375 75.574219 194.75 C 76.546875 195.847656 76.179688 197.195312 75.554688 198.144531 C 74.09375 200.355469 72.609375 202.648438 70.695312 204.4375 C 67.851562 207.101562 64.207031 208.285156 60.828125 208.613281 " fill-opacity="1" fill-rule="nonzero"/><g clip-path="url(#fbfef0f802)"><path fill="#ffc090" d="M 43.578125 152.941406 C 46.046875 150.066406 48.609375 149.1875 51.835938 150.554688 C 54.597656 151.71875 57.464844 152.636719 60.191406 153.863281 C 61.574219 154.484375 62.757812 155.539062 64.019531 156.414062 C 64.28125 156.597656 64.535156 156.820312 64.734375 157.074219 C 66.058594 158.792969 65.203125 161.175781 63.085938 161.292969 C 57.269531 161.617188 51.761719 160.6875 47.234375 156.597656 C 45.988281 155.472656 44.855469 154.226562 43.578125 152.941406 " fill-opacity="1" fill-rule="nonzero"/></g><g clip-path="url(#622a46952a)"><path fill="#ffc090" d="M 103.890625 226.742188 C 102.75 225.058594 101.726562 223.359375 101.367188 221.304688 C 101.15625 220.117188 100.761719 218.960938 100.414062 217.796875 C 98.902344 212.75 100.011719 208.234375 103.113281 204.097656 C 103.621094 203.421875 104.074219 202.703125 104.636719 201.875 C 106.898438 203.644531 107.914062 205.875 108.097656 208.410156 C 108.246094 210.492188 108.117188 212.609375 107.949219 214.699219 C 107.679688 217.984375 107.664062 221.296875 106.480469 224.472656 C 105.996094 225.777344 105.285156 226.476562 103.890625 226.742188 " fill-opacity="1" fill-rule="nonzero"/></g><path fill="#ffc090" d="M 79.914062 225.023438 C 79.648438 224.207031 79.253906 223.417969 79.152344 222.589844 C 78.570312 217.972656 79.324219 213.566406 81.371094 209.390625 C 81.515625 209.097656 81.652344 208.804688 81.808594 208.523438 C 83.824219 204.902344 84.257812 203.800781 89.320312 205.265625 C 90.296875 210.328125 88.789062 215 86.640625 219.46875 C 85.410156 222.039062 82.707031 224.011719 79.914062 225.023438 " fill-opacity="1" fill-rule="nonzero"/><path fill="#ffc090" d="M 64.109375 128.179688 C 64.824219 128.34375 65.535156 128.304688 65.945312 128.632812 C 69.625 131.585938 73.074219 134.738281 74.480469 139.496094 C 75.34375 142.410156 75.257812 145.355469 74.734375 148.304688 C 74.539062 149.40625 73.933594 149.738281 73.023438 149.132812 C 71.816406 148.335938 70.46875 147.554688 69.632812 146.433594 C 67.855469 144.046875 66.089844 141.574219 64.839844 138.898438 C 63.304688 135.617188 63.25 132.039062 64.109375 128.179688 " fill-opacity="1" fill-rule="nonzero"/><path fill="#ffc090" d="M 45.039062 183.199219 C 45.789062 182.304688 46.175781 181.589844 46.777344 181.167969 C 51.042969 178.175781 55.878906 176.710938 60.984375 176.019531 C 62.238281 175.851562 63.503906 175.75 64.734375 175.617188 C 65.414062 177.46875 65.390625 179.0625 65.007812 180.722656 C 64.753906 181.828125 64.359375 182.542969 63.234375 183.0625 C 60.28125 184.433594 57.316406 185.710938 54.023438 185.875 C 52.9375 185.925781 51.78125 185.800781 50.75 185.46875 C 48.929688 184.878906 47.183594 184.066406 45.039062 183.199219 " fill-opacity="1" fill-rule="nonzero"/><g clip-path="url(#d5c0f2df11)"><g clip-path="url(#5b72814512)"><path fill="#ffc090" d="M 83.320312 158.222656 L 121.789062 158.222656 L 121.789062 196.695312 L 83.320312 196.695312 Z M 83.320312 158.222656 " fill-opacity="1" fill-rule="nonzero"/></g></g><g clip-path="url(#26c4f8d812)"><g clip-path="url(#282fac701f)"><g clip-path="url(#f56a0fb7f8)"><path fill="#7fb77e" d="M 174.902344 213.757812 C 175.671875 213.925781 176.460938 214.253906 176.894531 214.910156 C 177.328125 215.574219 177.316406 216.433594 177.195312 217.21875 C 176.808594 219.671875 175.457031 221.957031 173.496094 223.476562 C 172.585938 224.183594 171.5625 224.722656 170.542969 225.257812 C 168.472656 226.347656 166.398438 227.4375 164.328125 228.527344 C 163.203125 229.117188 161.496094 230.375 159.726562 231.417969 C 161.046875 231.070312 162.386719 230.730469 163.730469 230.464844 C 166.691406 229.878906 169.847656 229.609375 173.164062 229.652344 C 173.640625 228.605469 176.53125 227.929688 177.433594 227.597656 C 182.167969 225.84375 187.390625 224.46875 192.398438 225.910156 C 194.609375 226.546875 196.878906 228.011719 197.261719 230.28125 C 197.613281 232.398438 196.097656 234.496094 194.15625 235.40625 C 192.210938 236.3125 189.953125 236.253906 187.832031 235.925781 C 184.398438 235.398438 181.066406 234.207031 178.070312 232.441406 C 177.414062 232.054688 173.488281 230.828125 173.203125 230.328125 C 173.195312 230.3125 173.191406 230.300781 173.183594 230.285156 C 169.902344 230.242188 166.78125 230.507812 163.855469 231.085938 C 163.203125 231.214844 162.554688 231.363281 161.90625 231.519531 C 165.890625 231.402344 171.640625 233.066406 174.492188 234.914062 C 177.65625 236.96875 180.4375 240.429688 179.898438 244.164062 C 179.757812 245.113281 179.378906 246.070312 178.628906 246.664062 C 177.792969 247.328125 176.621094 247.433594 175.574219 247.21875 C 173.253906 246.742188 171.445312 244.917969 170.089844 242.96875 C 168.738281 241.023438 167.679688 238.855469 166.066406 237.117188 C 164.796875 235.753906 159.90625 232.964844 160.203125 231.949219 C 159.613281 232.101562 159.023438 232.261719 158.441406 232.417969 C 156.152344 233.039062 153.789062 233.679688 151.398438 234.039062 C 147.851562 234.570312 142.800781 234.613281 138.890625 231.78125 L 139.261719 231.269531 C 143 233.976562 147.875 233.929688 151.304688 233.414062 C 152.414062 233.246094 153.523438 233.015625 154.625 232.753906 C 154.914062 232.082031 155.367188 231.265625 155.867188 230.820312 C 158.125 228.824219 159.695312 226.1875 161.230469 223.597656 C 162.769531 221.007812 164.34375 218.375 166.605469 216.386719 C 168.863281 214.394531 171.960938 213.117188 174.902344 213.757812 " fill-opacity="1" fill-rule="nonzero"/></g></g></g><g clip-path="url(#d213a2ed81)"><g clip-path="url(#2f5b0cc559)"><g clip-path="url(#9a3e075cd4)"><path fill="#7fb77e" d="M 195.1875 198.9375 C 191.019531 199.03125 187.191406 200.210938 183.71875 202.375 C 186.660156 198.96875 189.210938 195.257812 191.277344 191.117188 C 191.460938 190.75 190.882812 190.484375 190.699219 190.851562 C 188.808594 194.632812 186.519531 198.1875 183.8125 201.433594 C 182.242188 203.320312 180.511719 205.015625 178.730469 206.660156 C 180.730469 202.808594 181.199219 198.355469 180 194.105469 C 179.886719 193.707031 179.292969 193.933594 179.402344 194.328125 C 180.6875 198.867188 179.796875 204.050781 177.253906 208.011719 C 176.433594 208.75 175.613281 209.488281 174.796875 210.238281 C 172.992188 211.890625 171.285156 213.738281 169.707031 215.726562 C 169.785156 214.585938 169.515625 213.429688 169.234375 212.285156 C 168.699219 210.117188 167.917969 208.035156 166.933594 206.035156 C 166.753906 205.667969 166.15625 205.886719 166.339844 206.257812 C 167.085938 207.777344 167.722656 209.34375 168.214844 210.964844 C 168.761719 212.769531 169.511719 215.03125 168.816406 216.882812 C 165.804688 220.914062 163.339844 225.4375 161.710938 230.003906 C 161.574219 230.386719 162.152344 230.65625 162.289062 230.265625 C 163.945312 225.628906 166.40625 221.238281 169.40625 217.273438 C 173.144531 214.425781 178.105469 213.023438 182.714844 212.582031 C 183.121094 212.539062 183.054688 211.90625 182.644531 211.945312 C 178.59375 212.335938 174.28125 213.453125 170.722656 215.609375 C 172.625 213.292969 174.707031 211.136719 176.925781 209.191406 C 178.824219 207.523438 180.621094 205.785156 182.304688 203.964844 C 186.058594 201.269531 190.632812 199.679688 195.253906 199.574219 C 195.664062 199.5625 195.59375 198.925781 195.1875 198.9375 " fill-opacity="1" fill-rule="nonzero"/></g></g></g><g clip-path="url(#464b8042ca)"><g clip-path="url(#447248dc6d)"><g clip-path="url(#2d47c6177f)"><path fill="#7fb77e" d="M 188.285156 189.882812 C 188.226562 186.363281 188.839844 182.839844 190.082031 179.554688 C 190.847656 177.523438 191.917969 175.511719 193.679688 174.253906 C 195.4375 173 198.03125 172.714844 199.707031 174.089844 C 201.507812 175.558594 201.660156 178.289062 201.121094 180.550781 C 199.894531 185.675781 196.097656 189.578125 192.210938 192.867188 C 191.320312 193.617188 188.628906 196.320312 188.074219 195.539062 C 187.738281 195.0625 188.300781 190.652344 188.285156 189.882812 " fill-opacity="1" fill-rule="nonzero"/></g></g></g><g clip-path="url(#7180d0983c)"><g clip-path="url(#0e565c7a16)"><g clip-path="url(#5eb6209e58)"><path fill="#7fb77e" d="M 183.46875 191.019531 C 183.242188 187.207031 181.59375 183.03125 178.050781 181.636719 C 177.15625 181.285156 176.125 181.140625 175.234375 181.5 C 174.238281 181.90625 173.566406 182.882812 173.234375 183.910156 C 172.496094 186.191406 173.195312 188.695312 174.230469 190.859375 C 175.265625 193.023438 176.636719 195.039062 177.355469 197.328125 C 178.019531 199.445312 177.921875 206.960938 179.628906 204.644531 C 182.015625 201.40625 183.691406 194.757812 183.46875 191.019531 " fill-opacity="1" fill-rule="nonzero"/></g></g></g><g clip-path="url(#10d488123a)"><g clip-path="url(#34111f8412)"><g clip-path="url(#a4dd701d7c)"><path fill="#7fb77e" d="M 187.507812 207.457031 C 191.285156 207.058594 195.648438 208.011719 197.597656 211.296875 C 198.089844 212.128906 198.402344 213.125 198.191406 214.070312 C 197.957031 215.125 197.109375 215.953125 196.15625 216.449219 C 194.042969 217.554688 191.46875 217.269531 189.179688 216.597656 C 186.890625 215.925781 184.6875 214.894531 182.324219 214.558594 C 180.140625 214.242188 172.785156 215.574219 174.777344 213.5 C 177.5625 210.601562 183.804688 207.847656 187.507812 207.457031 " fill-opacity="1" fill-rule="nonzero"/></g></g></g><g clip-path="url(#de25d4519e)"><g clip-path="url(#b4da5f9c66)"><g clip-path="url(#bd2a4bbeb3)"><path fill="#7fb77e" d="M 168.925781 200.460938 C 167.359375 196.976562 164.335938 193.667969 160.535156 193.636719 C 159.574219 193.628906 158.5625 193.863281 157.859375 194.519531 C 157.070312 195.257812 156.789062 196.410156 156.847656 197.492188 C 156.96875 199.886719 158.511719 201.976562 160.242188 203.628906 C 161.976562 205.277344 163.972656 206.671875 165.457031 208.550781 C 166.832031 210.292969 169.15625 217.375 169.925781 214.597656 C 171 210.714844 170.460938 203.875 168.925781 200.460938 " fill-opacity="1" fill-rule="nonzero"/></g></g></g><g clip-path="url(#523810eaef)"><g clip-path="url(#97ea3e6aa5)"><g clip-path="url(#9993d1e652)"><path fill="#7fb77e" d="M 197.332031 195.652344 C 200.550781 195.3125 204.269531 196.125 205.929688 198.921875 C 206.351562 199.632812 206.617188 200.480469 206.4375 201.289062 C 206.238281 202.1875 205.515625 202.890625 204.703125 203.316406 C 202.902344 204.257812 200.710938 204.015625 198.757812 203.441406 C 196.804688 202.871094 194.929688 201.988281 192.917969 201.703125 C 191.054688 201.433594 184.789062 202.566406 186.484375 200.800781 C 188.859375 198.332031 194.175781 195.984375 197.332031 195.652344 " fill-opacity="1" fill-rule="nonzero"/></g></g></g><g clip-path="url(#519ccdf222)"><g clip-path="url(#715e2cba4a)"><g clip-path="url(#12faea6e0e)"><path fill="#7fb77e" d="M 196.964844 199.011719 C 196.964844 199.011719 196.8125 199.023438 196.535156 199.046875 C 196.257812 199.070312 195.855469 199.097656 195.363281 199.132812 C 194.375 199.210938 193.011719 199.265625 191.566406 199.511719 C 190.125 199.753906 188.886719 200.289062 187.976562 200.660156 C 187.066406 201.039062 186.488281 201.257812 186.445312 201.171875 C 186.402344 201.089844 186.898438 200.722656 187.765625 200.226562 C 188.203125 199.984375 188.730469 199.703125 189.351562 199.449219 C 189.972656 199.195312 190.683594 198.972656 191.453125 198.839844 C 192.992188 198.582031 194.378906 198.699219 195.367188 198.792969 C 195.863281 198.84375 196.261719 198.902344 196.539062 198.941406 C 196.8125 198.984375 196.964844 199.011719 196.964844 199.011719 " fill-opacity="1" fill-rule="nonzero"/></g></g></g><g clip-path="url(#235d94e4ba)"><g clip-path="url(#327b832b41)"><g clip-path="url(#b5ff2352dc)"><path fill="#7fb77e" d="M 186.570312 211.5 C 186.570312 211.5 186.394531 211.511719 186.074219 211.535156 C 185.757812 211.550781 185.300781 211.589844 184.734375 211.636719 C 183.609375 211.738281 182.074219 211.925781 180.433594 212.367188 C 178.792969 212.8125 177.328125 213.375 176.246094 213.71875 C 175.164062 214.074219 174.476562 214.238281 174.445312 214.152344 C 174.410156 214.0625 175.035156 213.738281 176.074219 213.269531 C 177.113281 212.8125 178.554688 212.171875 180.261719 211.710938 C 181.972656 211.25 183.59375 211.226562 184.730469 211.296875 C 185.304688 211.335938 185.761719 211.382812 186.078125 211.429688 C 186.394531 211.472656 186.570312 211.5 186.570312 211.5 " fill-opacity="1" fill-rule="nonzero"/></g></g></g><g clip-path="url(#07453c08e8)"><g clip-path="url(#df6976acad)"><g clip-path="url(#956cc5acfd)"><path fill="#7fb77e" d="M 194.597656 182.945312 C 194.597656 182.945312 194.359375 183.695312 193.941406 184.890625 C 193.519531 186.085938 192.933594 187.734375 192.121094 189.5 C 190.496094 193.042969 188.582031 195.570312 188.445312 195.46875 C 188.273438 195.355469 189.910156 192.699219 191.507812 189.210938 C 192.308594 187.46875 193.054688 185.886719 193.632812 184.757812 C 194.207031 183.625 194.597656 182.945312 194.597656 182.945312 " fill-opacity="1" fill-rule="nonzero"/></g></g></g><g clip-path="url(#2cf81700a4)"><g clip-path="url(#f8c54a82d1)"><g clip-path="url(#c122f3e269)"><path fill="#7fb77e" d="M 179.601562 191.429688 C 179.601562 191.429688 179.660156 191.609375 179.765625 191.9375 C 179.871094 192.265625 180.019531 192.742188 180.164062 193.34375 C 180.308594 193.945312 180.453125 194.675781 180.53125 195.496094 C 180.609375 196.316406 180.632812 197.207031 180.632812 198.148438 C 180.613281 200.0625 180.253906 201.75 179.933594 202.941406 C 179.605469 204.132812 179.316406 204.835938 179.230469 204.8125 C 179.136719 204.789062 179.265625 204.035156 179.46875 202.835938 C 179.664062 201.636719 179.9375 199.976562 179.957031 198.144531 C 179.957031 197.214844 179.976562 196.324219 179.960938 195.527344 C 179.949219 194.730469 179.890625 194.007812 179.832031 193.402344 C 179.769531 192.796875 179.707031 192.300781 179.664062 191.960938 C 179.621094 191.621094 179.601562 191.429688 179.601562 191.429688 " fill-opacity="1" fill-rule="nonzero"/></g></g></g><g clip-path="url(#2f777caf20)"><g clip-path="url(#5b6123eb6e)"><g clip-path="url(#b14a6f1376)"><path fill="#7fb77e" d="M 165.835938 202.421875 C 165.835938 202.421875 166.316406 203.003906 167.035156 203.992188 C 167.394531 204.484375 167.8125 205.078125 168.234375 205.777344 C 168.648438 206.476562 169.074219 207.285156 169.363281 208.199219 C 169.660156 209.113281 169.808594 210 169.890625 210.824219 C 169.964844 211.644531 169.949219 212.382812 169.894531 213 C 169.792969 214.234375 169.519531 214.96875 169.433594 214.941406 C 169.339844 214.921875 169.4375 214.183594 169.417969 212.980469 C 169.410156 212.382812 169.375 211.667969 169.273438 210.890625 C 169.164062 210.121094 168.996094 209.257812 168.722656 208.40625 C 168.164062 206.699219 167.308594 205.25 166.75 204.171875 C 166.175781 203.101562 165.835938 202.421875 165.835938 202.421875 " fill-opacity="1" fill-rule="nonzero"/></g></g></g><g fill="#ffc090" fill-opacity="1"><g transform="translate(210.256733, 205.357216)"><g><path d="M 15.90625 0.796875 C 13 0.796875 10.171875 0.472656 7.421875 -0.171875 C 4.671875 -0.828125 2.414062 -1.703125 0.65625 -2.796875 L 4.453125 -11.40625 C 6.117188 -10.4375 7.984375 -9.660156 10.046875 -9.078125 C 12.117188 -8.492188 14.101562 -8.203125 16 -8.203125 C 17.632812 -8.203125 18.800781 -8.359375 19.5 -8.671875 C 20.195312 -8.992188 20.546875 -9.46875 20.546875 -10.09375 C 20.546875 -10.832031 20.085938 -11.382812 19.171875 -11.75 C 18.253906 -12.113281 16.75 -12.515625 14.65625 -12.953125 C 11.945312 -13.515625 9.691406 -14.117188 7.890625 -14.765625 C 6.097656 -15.421875 4.535156 -16.488281 3.203125 -17.96875 C 1.867188 -19.457031 1.203125 -21.46875 1.203125 -24 C 1.203125 -26.195312 1.816406 -28.195312 3.046875 -30 C 4.285156 -31.800781 6.128906 -33.21875 8.578125 -34.25 C 11.023438 -35.28125 14 -35.796875 17.5 -35.796875 C 19.894531 -35.796875 22.25 -35.535156 24.5625 -35.015625 C 26.882812 -34.503906 28.929688 -33.75 30.703125 -32.75 L 27.15625 -24.203125 C 23.71875 -25.929688 20.46875 -26.796875 17.40625 -26.796875 C 14.363281 -26.796875 12.84375 -26.0625 12.84375 -24.59375 C 12.84375 -23.894531 13.289062 -23.367188 14.1875 -23.015625 C 15.09375 -22.671875 16.582031 -22.300781 18.65625 -21.90625 C 21.320312 -21.40625 23.570312 -20.828125 25.40625 -20.171875 C 27.238281 -19.523438 28.828125 -18.46875 30.171875 -17 C 31.523438 -15.53125 32.203125 -13.53125 32.203125 -11 C 32.203125 -8.800781 31.582031 -6.804688 30.34375 -5.015625 C 29.113281 -3.234375 27.273438 -1.816406 24.828125 -0.765625 C 22.378906 0.273438 19.40625 0.796875 15.90625 0.796875 Z M 15.90625 0.796875 "/></g></g></g><g fill="#ffc090" fill-opacity="1"><g transform="translate(243.106912, 205.357216)"><g><path d="M 16.953125 0.5 C 13.921875 0.5 11.195312 -0.109375 8.78125 -1.328125 C 6.363281 -2.546875 4.46875 -4.226562 3.09375 -6.375 C 1.726562 -8.519531 1.046875 -10.960938 1.046875 -13.703125 C 1.046875 -16.429688 1.726562 -18.867188 3.09375 -21.015625 C 4.46875 -23.171875 6.363281 -24.847656 8.78125 -26.046875 C 11.195312 -27.242188 13.921875 -27.84375 16.953125 -27.84375 C 20.015625 -27.84375 22.753906 -27.242188 25.171875 -26.046875 C 27.585938 -24.847656 29.46875 -23.171875 30.8125 -21.015625 C 32.164062 -18.867188 32.84375 -16.429688 32.84375 -13.703125 C 32.84375 -10.960938 32.164062 -8.519531 30.8125 -6.375 C 29.46875 -4.226562 27.585938 -2.546875 25.171875 -1.328125 C 22.753906 -0.109375 20.015625 0.5 16.953125 0.5 Z M 16.953125 -8.296875 C 18.253906 -8.296875 19.320312 -8.769531 20.15625 -9.71875 C 20.988281 -10.675781 21.40625 -12.003906 21.40625 -13.703125 C 21.40625 -15.398438 20.988281 -16.710938 20.15625 -17.640625 C 19.320312 -18.578125 18.253906 -19.046875 16.953125 -19.046875 C 15.648438 -19.046875 14.582031 -18.578125 13.75 -17.640625 C 12.914062 -16.710938 12.5 -15.398438 12.5 -13.703125 C 12.5 -12.003906 12.914062 -10.675781 13.75 -9.71875 C 14.582031 -8.769531 15.648438 -8.296875 16.953125 -8.296875 Z M 16.953125 -8.296875 "/></g></g></g><g fill="#ffc090" fill-opacity="1"><g transform="translate(277.0071, 205.357216)"><g><path d="M 2.5 -37.09375 L 13.796875 -37.09375 L 13.796875 0 L 2.5 0 Z M 2.5 -37.09375 "/></g></g></g><g fill="#ffc090" fill-opacity="1"><g transform="translate(293.307185, 205.357216)"><g><path d="M 25 0 L 18.953125 -9.34375 L 13.046875 0 L -0.40625 0 L 12.25 -17.65625 L 0.046875 -35 L 13.296875 -35 L 19.25 -26.203125 L 25.046875 -35 L 37.75 -35 L 25.59375 -18.09375 L 38.5 0 Z M 25 0 "/></g></g></g></svg>