<svg xmlns="http://www.w3.org/2000/svg" xmlns:xlink="http://www.w3.org/1999/xlink" width="500" zoomAndPan="magnify" viewBox="0 0 375 374.999991" height="500" preserveAspectRatio="xMidYMid meet" version="1.0"><defs><clipPath id="09356b577b"><path d="M 167 197 L 193 197 L 193 249 L 167 249 Z M 167 197 " clip-rule="nonzero"/></clipPath><clipPath id="a7e2c8247d"><path d="M 128.066406 226.136719 L 173.832031 194.738281 L 206.925781 242.980469 L 161.160156 274.375 Z M 128.066406 226.136719 " clip-rule="nonzero"/></clipPath><clipPath id="3099af83ec"><path d="M 173.6875 194.839844 L 127.921875 226.234375 L 161.015625 274.476562 L 206.78125 243.078125 Z M 173.6875 194.839844 " clip-rule="nonzero"/></clipPath><clipPath id="afc4b7c3b4"><path d="M 132 230 L 182 230 L 182 254 L 132 254 Z M 132 230 " clip-rule="nonzero"/></clipPath><clipPath id="bb785602c4"><path d="M 128.066406 226.136719 L 173.832031 194.738281 L 206.925781 242.980469 L 161.160156 274.375 Z M 128.066406 226.136719 " clip-rule="nonzero"/></clipPath><clipPath id="fec28537ab"><path d="M 173.6875 194.839844 L 127.921875 226.234375 L 161.015625 274.476562 L 206.78125 243.078125 Z M 173.6875 194.839844 " clip-rule="nonzero"/></clipPath><clipPath id="6573aeb793"><path d="M 247 135 L 275 135 L 275 153 L 247 153 Z M 247 135 " clip-rule="nonzero"/></clipPath><clipPath id="8c9267aade"><path d="M 214.269531 91.546875 L 269.453125 85.640625 L 276.316406 149.777344 L 221.128906 155.679688 Z M 214.269531 91.546875 " clip-rule="nonzero"/></clipPath><clipPath id="9d9cf63d85"><path d="M 214.269531 91.546875 L 269.453125 85.640625 L 276.316406 149.777344 L 221.128906 155.679688 Z M 214.269531 91.546875 " clip-rule="nonzero"/></clipPath><clipPath id="6438552c9c"><path d="M 218 103 L 240 103 L 240 150 L 218 150 Z M 218 103 " clip-rule="nonzero"/></clipPath><clipPath id="3c0c006429"><path d="M 214.269531 91.546875 L 269.453125 85.640625 L 276.316406 149.777344 L 221.128906 155.679688 Z M 214.269531 91.546875 " clip-rule="nonzero"/></clipPath><clipPath id="130f5f8230"><path d="M 214.269531 91.546875 L 269.453125 85.640625 L 276.316406 149.777344 L 221.128906 155.679688 Z M 214.269531 91.546875 " clip-rule="nonzero"/></clipPath><clipPath id="8f20a8238f"><path d="M 240 86 L 264 86 L 264 149 L 240 149 Z M 240 86 " clip-rule="nonzero"/></clipPath><clipPath id="1377a96f30"><path d="M 214.269531 91.546875 L 269.453125 85.640625 L 276.316406 149.777344 L 221.128906 155.679688 Z M 214.269531 91.546875 " clip-rule="nonzero"/></clipPath><clipPath id="1f587d7840"><path d="M 214.269531 91.546875 L 269.453125 85.640625 L 276.316406 149.777344 L 221.128906 155.679688 Z M 214.269531 91.546875 " clip-rule="nonzero"/></clipPath><clipPath id="4a00a78173"><path d="M 160.8125 145.574219 L 286.0625 145.574219 L 286.0625 249.824219 L 160.8125 249.824219 Z M 160.8125 145.574219 " clip-rule="nonzero"/></clipPath><clipPath id="f8bc58371e"><path d="M 153 91.367188 L 169 91.367188 L 169 125 L 153 125 Z M 153 91.367188 " clip-rule="nonzero"/></clipPath><clipPath id="8fb177f538"><path d="M 73.402344 136 L 104 136 L 104 152 L 73.402344 152 Z M 73.402344 136 " clip-rule="nonzero"/></clipPath><clipPath id="a999ab398b"><path d="M 150 207 L 162 207 L 162 241.367188 L 150 241.367188 Z M 150 207 " clip-rule="nonzero"/></clipPath><clipPath id="3576112135"><path d="M 127.808594 147.417969 L 180.476562 147.417969 L 180.476562 200.089844 L 127.808594 200.089844 Z M 127.808594 147.417969 " clip-rule="nonzero"/></clipPath><clipPath id="4fd57879ea"><path d="M 154.140625 147.417969 C 139.597656 147.417969 127.808594 159.210938 127.808594 173.753906 C 127.808594 188.296875 139.597656 200.089844 154.140625 200.089844 C 168.6875 200.089844 180.476562 188.296875 180.476562 173.753906 C 180.476562 159.210938 168.6875 147.417969 154.140625 147.417969 " clip-rule="nonzero"/></clipPath><clipPath id="3db3794ad3"><path d="M 203 223 L 284 223 L 284 270 L 203 270 Z M 203 223 " clip-rule="nonzero"/></clipPath><clipPath id="af714bed3a"><path d="M 251.039062 206.34375 L 287.226562 247.429688 L 239.953125 289.070312 L 203.761719 247.988281 Z M 251.039062 206.34375 " clip-rule="nonzero"/></clipPath><clipPath id="f9f5d3162a"><path d="M 251.039062 206.34375 L 287.226562 247.429688 L 239.953125 289.070312 L 203.761719 247.988281 Z M 251.039062 206.34375 " clip-rule="nonzero"/></clipPath><clipPath id="46870fb7ca"><path d="M 235 191 L 282 191 L 282 247 L 235 247 Z M 235 191 " clip-rule="nonzero"/></clipPath><clipPath id="f0a0c76abe"><path d="M 223.402344 177.175781 L 290.003906 166.210938 L 301.457031 235.773438 L 234.851562 246.738281 Z M 223.402344 177.175781 " clip-rule="nonzero"/></clipPath><clipPath id="3e54528dfe"><path d="M 290.179688 166.179688 L 223.574219 177.144531 L 235.027344 246.710938 L 301.628906 235.746094 Z M 290.179688 166.179688 " clip-rule="nonzero"/></clipPath><clipPath id="68697b02d5"><path d="M 271 167 L 290 167 L 290 199 L 271 199 Z M 271 167 " clip-rule="nonzero"/></clipPath><clipPath id="2c7e6c36f3"><path d="M 223.402344 177.175781 L 290.003906 166.210938 L 301.457031 235.773438 L 234.851562 246.738281 Z M 223.402344 177.175781 " clip-rule="nonzero"/></clipPath><clipPath id="e6d5eb7b81"><path d="M 290.179688 166.179688 L 223.574219 177.144531 L 235.027344 246.710938 L 301.628906 235.746094 Z M 290.179688 166.179688 " clip-rule="nonzero"/></clipPath><clipPath id="61de9f1e40"><path d="M 250 179 L 265 179 L 265 212 L 250 212 Z M 250 179 " clip-rule="nonzero"/></clipPath><clipPath id="51070da9fa"><path d="M 223.402344 177.175781 L 290.003906 166.210938 L 301.457031 235.773438 L 234.851562 246.738281 Z M 223.402344 177.175781 " clip-rule="nonzero"/></clipPath><clipPath id="9e008c6061"><path d="M 290.179688 166.179688 L 223.574219 177.144531 L 235.027344 246.710938 L 301.628906 235.746094 Z M 290.179688 166.179688 " clip-rule="nonzero"/></clipPath><clipPath id="95cbdc778f"><path d="M 252 214 L 286 214 L 286 229 L 252 229 Z M 252 214 " clip-rule="nonzero"/></clipPath><clipPath id="6729cccd29"><path d="M 223.402344 177.175781 L 290.003906 166.210938 L 301.457031 235.773438 L 234.851562 246.738281 Z M 223.402344 177.175781 " clip-rule="nonzero"/></clipPath><clipPath id="50272e6696"><path d="M 290.179688 166.179688 L 223.574219 177.144531 L 235.027344 246.710938 L 301.628906 235.746094 Z M 290.179688 166.179688 " clip-rule="nonzero"/></clipPath><clipPath id="60184c73d2"><path d="M 228 195 L 248 195 L 248 226 L 228 226 Z M 228 195 " clip-rule="nonzero"/></clipPath><clipPath id="6654aed3ca"><path d="M 223.402344 177.175781 L 290.003906 166.210938 L 301.457031 235.773438 L 234.851562 246.738281 Z M 223.402344 177.175781 " clip-rule="nonzero"/></clipPath><clipPath id="a2dee4effc"><path d="M 290.179688 166.179688 L 223.574219 177.144531 L 235.027344 246.710938 L 301.628906 235.746094 Z M 290.179688 166.179688 " clip-rule="nonzero"/></clipPath><clipPath id="0b25ee8855"><path d="M 268 198 L 297 198 L 297 211 L 268 211 Z M 268 198 " clip-rule="nonzero"/></clipPath><clipPath id="32df24d8bd"><path d="M 223.402344 177.175781 L 290.003906 166.210938 L 301.457031 235.773438 L 234.851562 246.738281 Z M 223.402344 177.175781 " clip-rule="nonzero"/></clipPath><clipPath id="e031a112de"><path d="M 290.179688 166.179688 L 223.574219 177.144531 L 235.027344 246.710938 L 301.628906 235.746094 Z M 290.179688 166.179688 " clip-rule="nonzero"/></clipPath><clipPath id="44b40609cb"><path d="M 268 202 L 284 202 L 284 207 L 268 207 Z M 268 202 " clip-rule="nonzero"/></clipPath><clipPath id="45c299d4e2"><path d="M 223.402344 177.175781 L 290.003906 166.210938 L 301.457031 235.773438 L 234.851562 246.738281 Z M 223.402344 177.175781 " clip-rule="nonzero"/></clipPath><clipPath id="8bcdca32f4"><path d="M 290.179688 166.179688 L 223.574219 177.144531 L 235.027344 246.710938 L 301.628906 235.746094 Z M 290.179688 166.179688 " clip-rule="nonzero"/></clipPath><clipPath id="6129ed3661"><path d="M 252 220 L 270 220 L 270 225 L 252 225 Z M 252 220 " clip-rule="nonzero"/></clipPath><clipPath id="ba562c0d8f"><path d="M 223.402344 177.175781 L 290.003906 166.210938 L 301.457031 235.773438 L 234.851562 246.738281 Z M 223.402344 177.175781 " clip-rule="nonzero"/></clipPath><clipPath id="bf0c2f9922"><path d="M 290.179688 166.179688 L 223.574219 177.144531 L 235.027344 246.710938 L 301.628906 235.746094 Z M 290.179688 166.179688 " clip-rule="nonzero"/></clipPath><clipPath id="a28d6ea595"><path d="M 271 181 L 281 181 L 281 199 L 271 199 Z M 271 181 " clip-rule="nonzero"/></clipPath><clipPath id="c79e6cbf40"><path d="M 223.402344 177.175781 L 290.003906 166.210938 L 301.457031 235.773438 L 234.851562 246.738281 Z M 223.402344 177.175781 " clip-rule="nonzero"/></clipPath><clipPath id="aef2af8690"><path d="M 290.179688 166.179688 L 223.574219 177.144531 L 235.027344 246.710938 L 301.628906 235.746094 Z M 290.179688 166.179688 " clip-rule="nonzero"/></clipPath><clipPath id="6b3bd2ca8d"><path d="M 259 192 L 262 192 L 262 212 L 259 212 Z M 259 192 " clip-rule="nonzero"/></clipPath><clipPath id="80ac8b5a3d"><path d="M 223.402344 177.175781 L 290.003906 166.210938 L 301.457031 235.773438 L 234.851562 246.738281 Z M 223.402344 177.175781 " clip-rule="nonzero"/></clipPath><clipPath id="310fb42e76"><path d="M 290.179688 166.179688 L 223.574219 177.144531 L 235.027344 246.710938 L 301.628906 235.746094 Z M 290.179688 166.179688 " clip-rule="nonzero"/></clipPath><clipPath id="a1ecc209bd"><path d="M 240 207 L 247 207 L 247 226 L 240 226 Z M 240 207 " clip-rule="nonzero"/></clipPath><clipPath id="51c148ea49"><path d="M 223.402344 177.175781 L 290.003906 166.210938 L 301.457031 235.773438 L 234.851562 246.738281 Z M 223.402344 177.175781 " clip-rule="nonzero"/></clipPath><clipPath id="dcacb70a1f"><path d="M 290.179688 166.179688 L 223.574219 177.144531 L 235.027344 246.710938 L 301.628906 235.746094 Z M 290.179688 166.179688 " clip-rule="nonzero"/></clipPath></defs><g clip-path="url(#09356b577b)"><g clip-path="url(#a7e2c8247d)"><g clip-path="url(#3099af83ec)"><path fill="#b1d7b4" d="M 192.324219 228.066406 C 191.1875 221.949219 188.273438 216.300781 184.804688 211.148438 C 180.949219 205.417969 176.046875 199.964844 169.496094 197.730469 C 172.269531 202.515625 170.742188 208.523438 169.519531 213.9375 C 168.191406 219.832031 167.320312 225.953125 168.335938 231.894531 C 169.355469 237.835938 172.5 243.628906 177.695312 246.695312 C 190.488281 254.238281 194.03125 237.234375 192.324219 228.066406 " fill-opacity="1" fill-rule="nonzero"/></g></g></g><g clip-path="url(#afc4b7c3b4)"><g clip-path="url(#bb785602c4)"><g clip-path="url(#fec28537ab)"><path fill="#b1d7b4" d="M 132.984375 231.195312 C 134.835938 236.308594 138.171875 240.070312 141.808594 243.933594 C 145.132812 247.460938 149.449219 249.988281 154.042969 251.519531 C 159.523438 253.34375 165.394531 253.804688 171.179688 253.511719 C 174.832031 253.324219 178.671875 252.761719 181.558594 250.5 C 177.027344 248.605469 172.867188 245.851562 169.34375 242.441406 C 167.578125 240.726562 166.378906 239.074219 165.195312 236.964844 C 164.015625 234.878906 162.707031 232.6875 160.519531 231.523438 C 157.625 229.980469 154.09375 230.679688 150.835938 231.160156 C 144.925781 232.035156 138.890625 232.046875 132.984375 231.195312 " fill-opacity="1" fill-rule="nonzero"/></g></g></g><g clip-path="url(#6573aeb793)"><g clip-path="url(#8c9267aade)"><g clip-path="url(#9d9cf63d85)"><path fill="#b1d7b4" d="M 247.171875 152.472656 C 249.285156 147.070312 253.210938 142.402344 258.164062 139.40625 C 263.117188 136.410156 269.0625 135.105469 274.8125 135.75 C 268.855469 145.148438 258.242188 151.707031 247.171875 152.472656 " fill-opacity="1" fill-rule="nonzero"/></g></g></g><g clip-path="url(#6438552c9c)"><g clip-path="url(#3c0c006429)"><g clip-path="url(#130f5f8230)"><path fill="#b1d7b4" d="M 237.925781 149.679688 C 240.132812 141.011719 239.414062 131.621094 235.914062 123.390625 C 232.417969 115.160156 226.160156 108.140625 218.398438 103.738281 C 217.40625 120.875 224.777344 138.6875 237.925781 149.679688 " fill-opacity="1" fill-rule="nonzero"/></g></g></g><g clip-path="url(#8f20a8238f)"><g clip-path="url(#1377a96f30)"><g clip-path="url(#1f587d7840)"><path fill="#b1d7b4" d="M 244.1875 148.757812 C 239.941406 137.953125 239.351562 125.742188 242.527344 114.578125 C 245.703125 103.414062 252.628906 93.363281 261.917969 86.445312 C 265.960938 108.363281 259.34375 132.488281 244.1875 148.757812 " fill-opacity="1" fill-rule="nonzero"/></g></g></g><path fill="#b1d7b4" d="M 280.066406 147 L 162.097656 210.316406 L 166.808594 217.019531 L 265.886719 217.019531 L 284.777344 153.703125 Z M 280.066406 147 " fill-opacity="1" fill-rule="nonzero"/><path fill="#f7f6dc" d="M 180.988281 147 L 162.097656 210.316406 L 261.175781 210.316406 L 280.066406 147 Z M 180.988281 147 " fill-opacity="1" fill-rule="nonzero"/><path fill="#7fb77e" d="M 209.429688 217.019531 L 222.835938 217.019531 L 222.835938 248.445312 L 209.429688 248.445312 Z M 209.429688 217.019531 " fill-opacity="1" fill-rule="nonzero"/><g clip-path="url(#4a00a78173)"><path fill="#7fb77e" d="M 285.804688 152.976562 L 281.09375 146.273438 L 281.050781 146.230469 C 281.007812 146.1875 280.964844 146.101562 280.921875 146.058594 L 280.878906 146.015625 C 280.835938 145.972656 280.75 145.929688 280.707031 145.886719 L 280.664062 145.847656 C 280.492188 145.761719 280.324219 145.71875 280.152344 145.71875 L 180.988281 145.71875 C 180.429688 145.71875 179.917969 146.101562 179.746094 146.613281 L 160.855469 209.933594 L 160.855469 210.574219 C 160.855469 210.660156 160.898438 210.746094 160.941406 210.832031 C 160.941406 210.871094 160.984375 210.871094 160.984375 210.914062 C 161.027344 210.957031 161.027344 211.042969 161.070312 211.085938 L 165.78125 217.789062 C 166.039062 218.132812 166.421875 218.34375 166.851562 218.34375 L 208.144531 218.34375 L 208.144531 247.207031 L 186.386719 247.207031 C 185.65625 247.207031 185.101562 247.761719 185.101562 248.488281 C 185.101562 249.214844 185.65625 249.769531 186.386719 249.769531 L 245.796875 249.769531 C 246.523438 249.769531 247.082031 249.214844 247.082031 248.488281 C 247.082031 247.761719 246.523438 247.207031 245.796875 247.207031 L 224.078125 247.207031 L 224.078125 218.300781 L 265.886719 218.300781 C 266.445312 218.300781 266.957031 217.917969 267.128906 217.40625 L 286.019531 154.085938 C 286.105469 153.703125 286.0625 153.273438 285.804688 152.976562 Z M 278.351562 148.28125 L 272.824219 166.808594 L 250.722656 166.808594 L 256.25 148.28125 Z M 216.96875 187.902344 L 194.867188 187.902344 L 200.390625 169.371094 L 222.496094 169.371094 Z M 225.195312 169.371094 L 247.296875 169.371094 L 241.769531 187.902344 L 219.667969 187.902344 Z M 216.199219 190.464844 L 210.671875 208.996094 L 188.570312 208.996094 L 194.09375 190.464844 Z M 218.898438 190.464844 L 241 190.464844 L 235.472656 208.996094 L 213.371094 208.996094 Z M 243.65625 190.464844 L 265.757812 190.464844 L 260.234375 208.996094 L 238.128906 208.996094 Z M 244.425781 187.902344 L 249.953125 169.371094 L 272.054688 169.371094 L 266.53125 187.902344 Z M 253.550781 148.28125 L 248.023438 166.808594 L 225.921875 166.808594 L 231.488281 148.28125 Z M 228.792969 148.28125 L 223.265625 166.808594 L 201.164062 166.808594 L 206.6875 148.28125 Z M 181.929688 148.28125 L 204.03125 148.28125 L 198.507812 166.808594 L 176.402344 166.808594 Z M 175.632812 169.371094 L 197.734375 169.371094 L 192.210938 187.902344 L 170.109375 187.902344 Z M 169.335938 190.464844 L 191.4375 190.464844 L 185.914062 208.996094 L 163.8125 208.996094 Z M 221.550781 247.121094 L 210.714844 247.121094 L 210.714844 218.300781 L 221.550781 218.300781 Z M 264.945312 215.742188 L 167.496094 215.742188 L 164.582031 211.597656 L 261.21875 211.597656 C 261.773438 211.597656 262.289062 211.214844 262.460938 210.703125 L 280.535156 149.902344 L 283.363281 153.914062 Z M 264.945312 215.742188 " fill-opacity="1" fill-rule="nonzero"/></g><path fill="#ffc090" d="M 166.386719 150.140625 C 166.222656 150.238281 166.0625 150.335938 165.902344 150.433594 C 166.410156 151.246094 166.917969 152.0625 167.425781 152.878906 C 167.582031 152.78125 167.742188 152.683594 167.898438 152.589844 C 167.394531 151.773438 166.890625 150.957031 166.386719 150.140625 Z M 118.675781 179.132812 C 118.859375 179.027344 119.046875 178.921875 119.230469 178.816406 C 118.96875 177.445312 118.707031 176.070312 118.445312 174.699219 C 118.261719 174.742188 118.078125 174.78125 117.894531 174.820312 C 118.15625 176.257812 118.417969 177.695312 118.675781 179.132812 Z M 168.277344 154.035156 C 168.046875 154.101562 167.902344 154.316406 167.925781 154.546875 C 168.089844 156.160156 168.25 157.773438 170.148438 158.894531 L 168.871094 154.363281 C 168.796875 154.109375 168.53125 153.960938 168.277344 154.035156 Z M 158.371094 163.875 C 154.933594 163.300781 152.785156 164.652344 150.960938 166.78125 C 150.03125 167.863281 149.996094 168.882812 150.648438 170.121094 C 152.503906 173.628906 157.21875 176.320312 161.121094 176.050781 C 163.082031 175.914062 164.515625 175.003906 165.242188 173.1875 C 167.164062 168.390625 168.332031 163.667969 166.691406 158.332031 C 165.578125 154.722656 164.421875 151.636719 161.507812 148.996094 C 158.648438 146.402344 155.527344 145.550781 151.921875 145.351562 C 147.472656 145.105469 143.554688 146.644531 139.503906 148.269531 C 133.832031 150.554688 130.378906 154.265625 129.625 160.375 C 129.101562 164.636719 128.542969 168.894531 128.144531 173.167969 C 127.742188 177.464844 129.507812 181.40625 130.507812 185.460938 C 130.925781 187.167969 131.707031 188.789062 132.371094 190.433594 C 133.582031 193.4375 135.070312 196.261719 137.546875 198.46875 C 138.230469 199.078125 138.722656 199.90625 139.304688 200.632812 C 139.144531 200.851562 138.980469 201.066406 138.820312 201.285156 C 137.84375 200.714844 136.796875 200.242188 135.902344 199.5625 C 131.496094 196.210938 127.136719 192.800781 122.753906 189.417969 C 119.433594 186.847656 117.679688 183.226562 116.558594 179.375 C 114.902344 173.707031 114.84375 167.792969 114.660156 161.941406 C 114.472656 155.90625 116.550781 150.296875 119.175781 145.0625 C 120.449219 142.523438 123.03125 140.503906 125.355469 138.664062 C 128.835938 135.90625 133.070312 134.421875 137.164062 132.84375 C 143.363281 130.457031 149.78125 130.855469 156.132812 132.167969 C 158.933594 132.75 161.792969 133.496094 164.34375 134.742188 C 168.476562 136.765625 172.308594 139.265625 175.195312 143.097656 C 178.953125 148.085938 181.988281 153.425781 183.886719 159.359375 C 185.886719 165.609375 186.507812 172.109375 184.597656 178.367188 C 183.398438 182.304688 181.871094 186.484375 178.019531 189.035156 C 176.371094 190.125 175 191.65625 173.300781 192.640625 C 168.363281 195.5 163.058594 196.0625 157.554688 194.613281 C 155.515625 194.074219 153.496094 193.457031 151.472656 192.871094 C 149.988281 192.441406 148.578125 192.042969 147.605469 190.574219 C 147.121094 189.847656 145.960938 189.554688 145.085938 189.105469 C 143.304688 188.1875 141.847656 187.105469 141.257812 184.964844 C 140.039062 180.535156 137.425781 176.527344 137.292969 171.761719 C 137.152344 166.695312 138.90625 162.171875 141.378906 157.898438 C 142.277344 156.34375 143.578125 155.144531 145.589844 155.023438 C 147.558594 154.90625 149.515625 154.585938 151.480469 154.496094 C 152.085938 154.464844 152.820312 154.757812 153.308594 155.136719 C 155.972656 157.222656 157.640625 159.933594 158.371094 163.875 " fill-opacity="1" fill-rule="nonzero"/><path fill="#ffc090" d="M 192.289062 149.09375 C 190.96875 146.792969 189.832031 144.804688 188.75 142.917969 C 188.984375 142.398438 189.054688 142.03125 189.269531 141.804688 C 191.425781 139.546875 193.929688 137.644531 195.738281 135.015625 C 196.601562 133.761719 198.09375 133.28125 199.691406 132.890625 C 201.429688 132.460938 202.980469 131.253906 204.585938 130.335938 C 205.128906 130.023438 205.554688 129.257812 206.082031 129.207031 C 209.25 128.921875 212.429688 128.695312 215.605469 128.683594 C 216.101562 128.683594 216.9375 129.828125 217.039062 130.527344 C 217.523438 133.886719 216.742188 137.214844 214.140625 139.265625 C 208.296875 143.875 201.96875 147.757812 194.492188 149.234375 C 194.066406 149.320312 193.617188 149.328125 193.183594 149.304688 C 192.859375 149.285156 192.539062 149.15625 192.289062 149.09375 " fill-opacity="1" fill-rule="nonzero"/><g clip-path="url(#f8bc58371e)"><path fill="#ffc090" d="M 164.25 91.46875 C 165.367188 93.164062 166.242188 94.152344 166.726562 95.3125 C 167.34375 96.789062 167.902344 98.378906 168.042969 99.960938 C 168.585938 106.03125 167.167969 111.878906 165.726562 117.710938 C 165.488281 118.679688 165.230469 119.648438 164.925781 120.597656 C 163.960938 123.597656 163.128906 124.125 159.878906 123.859375 C 159.4375 123.820312 158.96875 123.710938 158.554688 123.8125 C 155.152344 124.644531 154.480469 123.3125 154.050781 120.175781 C 153.648438 117.222656 153.667969 114.191406 153.761719 111.203125 C 153.910156 106.574219 156.335938 102.742188 158.644531 98.96875 C 160.238281 96.367188 162.296875 94.050781 164.25 91.46875 " fill-opacity="1" fill-rule="nonzero"/></g><path fill="#ffc090" d="M 173.046875 204.28125 C 175.527344 202.527344 177.136719 202.804688 179.332031 204.390625 C 183.839844 207.644531 187.023438 211.640625 188.761719 216.878906 C 189.945312 220.453125 191.316406 223.96875 192.34375 227.585938 C 192.980469 229.824219 192.570312 230.210938 190.410156 231.027344 C 189.003906 231.558594 187.417969 232.792969 186.253906 232.472656 C 185.046875 232.136719 184.3125 230.253906 183.269531 229.140625 C 181.695312 227.457031 179.625 226.101562 178.484375 224.175781 C 174.882812 218.078125 172.707031 211.5 173.046875 204.28125 " fill-opacity="1" fill-rule="nonzero"/><path fill="#ffc090" d="M 192.664062 170.535156 C 193.09375 169.25 193.535156 168.433594 193.617188 167.582031 C 193.929688 164.335938 196.089844 163.003906 198.878906 162.433594 C 205.214844 161.136719 211.488281 161.519531 217.535156 163.796875 C 219.21875 164.433594 220.726562 165.730469 222.082031 166.980469 C 223.40625 168.203125 223.070312 170.074219 221.539062 171.28125 C 218.613281 173.597656 215.363281 175.070312 211.566406 175.367188 C 206.394531 175.769531 201.359375 175.433594 196.632812 173.128906 C 195.203125 172.429688 193.941406 171.382812 192.664062 170.535156 " fill-opacity="1" fill-rule="nonzero"/><path fill="#ffc090" d="M 126.4375 94.84375 C 129.75 96.226562 132.433594 98.117188 134.472656 100.761719 C 136.089844 102.851562 137.402344 105.175781 138.847656 107.394531 C 141.519531 111.496094 142.101562 116.074219 141.632812 120.789062 C 141.472656 122.414062 140.640625 123.972656 139.980469 125.964844 C 138.90625 125.527344 137.5625 125.269531 136.582031 124.535156 C 128.308594 118.355469 124.363281 109.921875 124.046875 99.695312 C 124.03125 99.109375 124.304688 98.457031 124.609375 97.933594 C 124.921875 97.390625 125.5 97.003906 125.84375 96.476562 C 126.113281 96.054688 126.203125 95.519531 126.4375 94.84375 " fill-opacity="1" fill-rule="nonzero"/><path fill="#ffc090" d="M 188.855469 190.296875 C 190.40625 188.976562 191.753906 187.5625 193.359375 186.574219 C 194.117188 186.109375 195.5 186.144531 196.382812 186.496094 C 201.867188 188.691406 206.519531 192.03125 210.699219 196.292969 C 213.109375 198.75 214.277344 201.433594 215 204.570312 C 215.335938 206.035156 214.921875 206.90625 213.414062 207.246094 C 209.433594 208.148438 205.574219 207.449219 202.28125 205.324219 C 196.828125 201.804688 192.4375 197.113281 189.25 191.382812 C 189.042969 191.007812 188.953125 190.570312 188.855469 190.296875 " fill-opacity="1" fill-rule="nonzero"/><path fill="#ffc090" d="M 173.855469 126.667969 C 174.34375 125.226562 174.53125 124.085938 175.082031 123.160156 C 176.667969 120.507812 178.257812 117.839844 180.109375 115.371094 C 182.160156 112.628906 184.453125 110.058594 186.742188 107.5 C 187.949219 106.152344 189.382812 105.054688 191.351562 106.300781 C 191.519531 106.40625 191.789062 106.347656 192 106.398438 C 196.511719 107.535156 197.179688 108.910156 194.75 113.089844 C 192.472656 117.011719 189.984375 120.816406 187.40625 124.550781 C 185.285156 127.613281 182.945312 130.527344 180.617188 133.4375 C 179.511719 134.824219 178.125 135.023438 177.304688 133.691406 C 175.902344 131.421875 174.917969 128.890625 173.855469 126.667969 " fill-opacity="1" fill-rule="nonzero"/><path fill="#ffc090" d="M 97.015625 216.410156 C 93.84375 216.542969 93.335938 215.785156 93.59375 213.378906 C 93.816406 211.265625 94.726562 209.71875 96.152344 208.234375 C 99.292969 204.96875 102.191406 201.464844 105.421875 198.292969 C 106.972656 196.773438 109.039062 195.777344 110.890625 194.574219 C 112.203125 193.71875 113.421875 194.03125 114.535156 194.992188 C 115.445312 195.78125 116.410156 196.527344 117.203125 197.425781 C 118.535156 198.929688 118.035156 200.773438 117.171875 202.074219 C 115.175781 205.101562 113.140625 208.238281 110.523438 210.691406 C 106.628906 214.335938 101.640625 215.957031 97.015625 216.410156 " fill-opacity="1" fill-rule="nonzero"/><g clip-path="url(#8fb177f538)"><path fill="#ffc090" d="M 73.398438 140.183594 C 76.773438 136.246094 80.285156 135.046875 84.703125 136.914062 C 88.480469 138.511719 92.40625 139.765625 96.144531 141.449219 C 98.03125 142.296875 99.65625 143.742188 101.382812 144.941406 C 101.742188 145.191406 102.089844 145.496094 102.359375 145.84375 C 104.171875 148.195312 103.003906 151.457031 100.105469 151.621094 C 92.140625 152.0625 84.597656 150.792969 78.402344 145.191406 C 76.699219 143.652344 75.148438 141.941406 73.398438 140.183594 " fill-opacity="1" fill-rule="nonzero"/></g><g clip-path="url(#a999ab398b)"><path fill="#ffc090" d="M 155.96875 241.226562 C 154.40625 238.921875 153.011719 236.597656 152.515625 233.78125 C 152.226562 232.15625 151.6875 230.570312 151.210938 228.980469 C 149.140625 222.074219 150.664062 215.886719 154.90625 210.226562 C 155.601562 209.296875 156.21875 208.316406 156.996094 207.183594 C 160.085938 209.605469 161.480469 212.65625 161.730469 216.128906 C 161.933594 218.980469 161.757812 221.878906 161.523438 224.738281 C 161.15625 229.234375 161.140625 233.773438 159.519531 238.121094 C 158.851562 239.910156 157.882812 240.863281 155.96875 241.226562 " fill-opacity="1" fill-rule="nonzero"/></g><path fill="#ffc090" d="M 123.144531 238.871094 C 122.78125 237.757812 122.242188 236.675781 122.097656 235.539062 C 121.300781 229.222656 122.335938 223.1875 125.140625 217.46875 C 125.335938 217.070312 125.523438 216.667969 125.738281 216.28125 C 128.496094 211.324219 129.089844 209.816406 136.023438 211.820312 C 137.359375 218.753906 135.296875 225.148438 132.355469 231.269531 C 130.667969 234.785156 126.96875 237.488281 123.144531 238.871094 " fill-opacity="1" fill-rule="nonzero"/><path fill="#ffc090" d="M 101.503906 106.285156 C 102.484375 106.511719 103.457031 106.453125 104.019531 106.90625 C 109.054688 110.949219 113.78125 115.261719 115.707031 121.773438 C 116.886719 125.765625 116.769531 129.796875 116.054688 133.835938 C 115.785156 135.347656 114.953125 135.796875 113.707031 134.972656 C 112.058594 133.878906 110.214844 132.8125 109.070312 131.273438 C 106.636719 128.007812 104.21875 124.625 102.503906 120.957031 C 100.40625 116.46875 100.332031 111.566406 101.503906 106.285156 " fill-opacity="1" fill-rule="nonzero"/><path fill="#ffc090" d="M 75.394531 181.609375 C 76.421875 180.386719 76.957031 179.40625 77.773438 178.832031 C 83.613281 174.734375 90.234375 172.726562 97.226562 171.785156 C 98.945312 171.554688 100.679688 171.410156 102.359375 171.230469 C 103.292969 173.765625 103.261719 175.949219 102.734375 178.222656 C 102.390625 179.734375 101.851562 180.710938 100.308594 181.425781 C 96.265625 183.304688 92.203125 185.050781 87.695312 185.273438 C 86.210938 185.347656 84.625 185.175781 83.21875 184.71875 C 80.722656 183.910156 78.332031 182.796875 75.394531 181.609375 " fill-opacity="1" fill-rule="nonzero"/><g clip-path="url(#3576112135)"><g clip-path="url(#4fd57879ea)"><path fill="#ffc090" d="M 127.808594 147.417969 L 180.476562 147.417969 L 180.476562 200.089844 L 127.808594 200.089844 Z M 127.808594 147.417969 " fill-opacity="1" fill-rule="nonzero"/></g></g><g clip-path="url(#3db3794ad3)"><g clip-path="url(#af714bed3a)"><g clip-path="url(#f9f5d3162a)"><path fill="#7fb77e" d="M 253.195312 223.449219 C 254.246094 223.679688 255.328125 224.128906 255.917969 225.03125 C 256.515625 225.9375 256.5 227.113281 256.332031 228.1875 C 255.804688 231.546875 253.953125 234.675781 251.269531 236.757812 C 250.023438 237.722656 248.621094 238.460938 247.226562 239.195312 C 244.390625 240.6875 241.554688 242.179688 238.714844 243.671875 C 237.175781 244.480469 234.839844 246.199219 232.417969 247.628906 C 234.222656 247.148438 236.058594 246.6875 237.898438 246.324219 C 241.953125 245.523438 246.277344 245.152344 250.8125 245.210938 C 251.464844 243.78125 255.421875 242.855469 256.660156 242.398438 C 263.144531 240 270.289062 238.113281 277.148438 240.085938 C 280.175781 240.957031 283.285156 242.964844 283.804688 246.070312 C 284.289062 248.96875 282.214844 251.84375 279.554688 253.085938 C 276.890625 254.328125 273.800781 254.25 270.898438 253.800781 C 266.195312 253.074219 261.632812 251.449219 257.53125 249.03125 C 256.636719 248.5 251.257812 246.824219 250.867188 246.136719 C 250.859375 246.117188 250.851562 246.097656 250.839844 246.078125 C 246.347656 246.015625 242.074219 246.378906 238.066406 247.171875 C 237.175781 247.347656 236.289062 247.554688 235.402344 247.765625 C 240.855469 247.609375 248.726562 249.882812 252.632812 252.417969 C 256.96875 255.230469 260.769531 259.964844 260.03125 265.082031 C 259.84375 266.378906 259.324219 267.691406 258.296875 268.503906 C 257.148438 269.414062 255.546875 269.554688 254.113281 269.261719 C 250.9375 268.609375 248.457031 266.109375 246.609375 263.445312 C 244.757812 260.777344 243.308594 257.808594 241.097656 255.433594 C 239.359375 253.566406 232.664062 249.746094 233.070312 248.355469 C 232.261719 248.566406 231.453125 248.78125 230.65625 249 C 227.527344 249.847656 224.289062 250.726562 221.015625 251.21875 C 216.160156 251.945312 209.246094 252.003906 203.890625 248.125 L 204.398438 247.425781 C 209.515625 251.132812 216.191406 251.066406 220.886719 250.363281 C 222.40625 250.132812 223.925781 249.816406 225.433594 249.460938 C 225.828125 248.539062 226.445312 247.417969 227.136719 246.808594 C 230.222656 244.078125 232.371094 240.46875 234.476562 236.921875 C 236.582031 233.378906 238.738281 229.773438 241.832031 227.046875 C 244.925781 224.324219 249.164062 222.574219 253.195312 223.449219 " fill-opacity="1" fill-rule="nonzero"/></g></g></g><g clip-path="url(#46870fb7ca)"><g clip-path="url(#f0a0c76abe)"><g clip-path="url(#3e54528dfe)"><path fill="#7fb77e" d="M 280.964844 203.15625 C 275.261719 203.289062 270.019531 204.898438 265.265625 207.867188 C 269.292969 203.199219 272.78125 198.121094 275.613281 192.453125 C 275.863281 191.949219 275.070312 191.585938 274.820312 192.089844 C 272.234375 197.265625 269.097656 202.136719 265.394531 206.578125 C 263.242188 209.160156 260.871094 211.480469 258.433594 213.734375 C 261.171875 208.460938 261.816406 202.359375 260.171875 196.542969 C 260.019531 196 259.203125 196.308594 259.355469 196.847656 C 261.113281 203.0625 259.898438 210.15625 256.410156 215.585938 C 255.289062 216.597656 254.167969 217.605469 253.046875 218.628906 C 250.578125 220.890625 248.238281 223.421875 246.082031 226.144531 C 246.1875 224.585938 245.816406 223 245.433594 221.433594 C 244.703125 218.464844 243.628906 215.617188 242.285156 212.875 C 242.039062 212.375 241.222656 212.675781 241.46875 213.183594 C 242.492188 215.265625 243.363281 217.40625 244.039062 219.625 C 244.789062 222.097656 245.816406 225.195312 244.859375 227.730469 C 240.738281 233.246094 237.363281 239.4375 235.132812 245.691406 C 234.945312 246.21875 235.734375 246.585938 235.925781 246.054688 C 238.191406 239.699219 241.558594 233.691406 245.671875 228.261719 C 250.785156 224.363281 257.582031 222.445312 263.886719 221.835938 C 264.445312 221.785156 264.355469 220.914062 263.796875 220.964844 C 258.25 221.5 252.34375 223.03125 247.472656 225.984375 C 250.078125 222.8125 252.929688 219.863281 255.960938 217.199219 C 258.5625 214.914062 261.023438 212.535156 263.328125 210.042969 C 268.46875 206.351562 274.730469 204.175781 281.054688 204.027344 C 281.617188 204.015625 281.523438 203.144531 280.964844 203.15625 " fill-opacity="1" fill-rule="nonzero"/></g></g></g><g clip-path="url(#68697b02d5)"><g clip-path="url(#2c7e6c36f3)"><g clip-path="url(#e6d5eb7b81)"><path fill="#7fb77e" d="M 271.519531 190.761719 C 271.4375 185.945312 272.277344 181.117188 273.976562 176.621094 C 275.027344 173.839844 276.492188 171.085938 278.902344 169.367188 C 281.308594 167.648438 284.859375 167.261719 287.15625 169.136719 C 289.617188 171.152344 289.832031 174.886719 289.089844 177.988281 C 287.414062 185.003906 282.214844 190.34375 276.894531 194.847656 C 275.675781 195.878906 271.984375 199.578125 271.226562 198.507812 C 270.769531 197.855469 271.539062 191.816406 271.519531 190.761719 " fill-opacity="1" fill-rule="nonzero"/></g></g></g><g clip-path="url(#61de9f1e40)"><g clip-path="url(#51070da9fa)"><g clip-path="url(#9e008c6061)"><path fill="#7fb77e" d="M 264.921875 192.320312 C 264.613281 187.097656 262.351562 181.382812 257.507812 179.472656 C 256.277344 178.988281 254.871094 178.792969 253.648438 179.289062 C 252.285156 179.839844 251.363281 181.179688 250.910156 182.585938 C 249.898438 185.707031 250.859375 189.136719 252.277344 192.097656 C 253.691406 195.058594 255.570312 197.820312 256.550781 200.953125 C 257.464844 203.851562 257.324219 214.140625 259.664062 210.972656 C 262.929688 206.539062 265.230469 197.4375 264.921875 192.320312 " fill-opacity="1" fill-rule="nonzero"/></g></g></g><g clip-path="url(#95cbdc778f)"><g clip-path="url(#6729cccd29)"><g clip-path="url(#50272e6696)"><path fill="#7fb77e" d="M 270.453125 214.824219 C 275.625 214.277344 281.601562 215.582031 284.265625 220.078125 C 284.941406 221.21875 285.367188 222.582031 285.078125 223.878906 C 284.757812 225.324219 283.601562 226.457031 282.292969 227.136719 C 279.398438 228.648438 275.875 228.257812 272.742188 227.339844 C 269.605469 226.417969 266.589844 225.007812 263.359375 224.542969 C 260.363281 224.117188 250.296875 225.9375 253.023438 223.097656 C 256.835938 219.128906 265.382812 215.359375 270.453125 214.824219 " fill-opacity="1" fill-rule="nonzero"/></g></g></g><g clip-path="url(#60184c73d2)"><g clip-path="url(#6654aed3ca)"><g clip-path="url(#a2dee4effc)"><path fill="#7fb77e" d="M 245.011719 205.246094 C 242.863281 200.476562 238.726562 195.945312 233.527344 195.902344 C 232.207031 195.890625 230.824219 196.210938 229.859375 197.113281 C 228.78125 198.121094 228.398438 199.699219 228.472656 201.179688 C 228.640625 204.457031 230.753906 207.320312 233.125 209.582031 C 235.496094 211.839844 238.230469 213.746094 240.261719 216.320312 C 242.140625 218.703125 245.324219 228.402344 246.378906 224.601562 C 247.855469 219.28125 247.109375 209.917969 245.011719 205.246094 " fill-opacity="1" fill-rule="nonzero"/></g></g></g><g clip-path="url(#0b25ee8855)"><g clip-path="url(#32df24d8bd)"><g clip-path="url(#e031a112de)"><path fill="#7fb77e" d="M 283.902344 198.660156 C 288.3125 198.195312 293.402344 199.308594 295.675781 203.140625 C 296.25 204.109375 296.613281 205.273438 296.367188 206.375 C 296.097656 207.609375 295.109375 208.574219 293.996094 209.152344 C 291.527344 210.441406 288.527344 210.109375 285.851562 209.328125 C 283.183594 208.542969 280.613281 207.339844 277.859375 206.945312 C 275.308594 206.578125 266.726562 208.128906 269.050781 205.710938 C 272.300781 202.332031 279.582031 199.117188 283.902344 198.660156 " fill-opacity="1" fill-rule="nonzero"/></g></g></g><g clip-path="url(#44b40609cb)"><g clip-path="url(#45c299d4e2)"><g clip-path="url(#8bcdca32f4)"><path fill="#7fb77e" d="M 283.398438 203.257812 C 283.398438 203.257812 283.1875 203.277344 282.8125 203.3125 C 282.429688 203.339844 281.882812 203.378906 281.207031 203.429688 C 279.855469 203.53125 277.988281 203.605469 276.011719 203.945312 C 274.035156 204.273438 272.339844 205.007812 271.09375 205.515625 C 269.847656 206.035156 269.058594 206.335938 269 206.21875 C 268.941406 206.105469 269.621094 205.601562 270.808594 204.921875 C 271.402344 204.589844 272.128906 204.207031 272.976562 203.859375 C 273.824219 203.511719 274.800781 203.207031 275.851562 203.027344 C 277.957031 202.671875 279.859375 202.835938 281.210938 202.964844 C 281.890625 203.035156 282.4375 203.109375 282.816406 203.167969 C 283.191406 203.226562 283.398438 203.257812 283.398438 203.257812 " fill-opacity="1" fill-rule="nonzero"/></g></g></g><g clip-path="url(#6129ed3661)"><g clip-path="url(#ba562c0d8f)"><g clip-path="url(#bf0c2f9922)"><path fill="#7fb77e" d="M 269.167969 220.355469 C 269.167969 220.355469 268.925781 220.375 268.492188 220.40625 C 268.054688 220.429688 267.429688 220.484375 266.65625 220.542969 C 265.113281 220.683594 263.011719 220.945312 260.765625 221.546875 C 258.519531 222.152344 256.515625 222.929688 255.03125 223.398438 C 253.554688 223.882812 252.609375 224.109375 252.566406 223.992188 C 252.519531 223.871094 253.378906 223.421875 254.796875 222.785156 C 256.222656 222.15625 258.195312 221.28125 260.53125 220.644531 C 262.875 220.015625 265.09375 219.984375 266.648438 220.078125 C 267.433594 220.136719 268.0625 220.195312 268.496094 220.261719 C 268.929688 220.324219 269.167969 220.355469 269.167969 220.355469 " fill-opacity="1" fill-rule="nonzero"/></g></g></g><g clip-path="url(#a28d6ea595)"><g clip-path="url(#c79e6cbf40)"><g clip-path="url(#aef2af8690)"><path fill="#7fb77e" d="M 280.160156 181.261719 C 280.160156 181.261719 279.835938 182.289062 279.261719 183.929688 C 278.683594 185.5625 277.878906 187.820312 276.769531 190.238281 C 274.542969 195.089844 271.921875 198.546875 271.734375 198.410156 C 271.5 198.257812 273.742188 194.617188 275.929688 189.84375 C 277.027344 187.457031 278.042969 185.289062 278.835938 183.742188 C 279.621094 182.195312 280.160156 181.261719 280.160156 181.261719 " fill-opacity="1" fill-rule="nonzero"/></g></g></g><g clip-path="url(#6b3bd2ca8d)"><g clip-path="url(#80ac8b5a3d)"><g clip-path="url(#310fb42e76)"><path fill="#7fb77e" d="M 259.625 192.878906 C 259.625 192.878906 259.707031 193.128906 259.855469 193.578125 C 259.996094 194.027344 260.199219 194.679688 260.398438 195.503906 C 260.597656 196.324219 260.792969 197.324219 260.902344 198.445312 C 261.007812 199.570312 261.039062 200.792969 261.039062 202.082031 C 261.011719 204.699219 260.519531 207.011719 260.082031 208.640625 C 259.636719 210.269531 259.234375 211.234375 259.117188 211.203125 C 258.988281 211.167969 259.167969 210.140625 259.445312 208.496094 C 259.714844 206.855469 260.085938 204.582031 260.113281 202.070312 C 260.113281 200.800781 260.144531 199.578125 260.121094 198.492188 C 260.105469 197.398438 260.027344 196.414062 259.941406 195.582031 C 259.859375 194.75 259.769531 194.074219 259.714844 193.605469 C 259.65625 193.140625 259.625 192.878906 259.625 192.878906 " fill-opacity="1" fill-rule="nonzero"/></g></g></g><g clip-path="url(#a1ecc209bd)"><g clip-path="url(#51c148ea49)"><g clip-path="url(#dcacb70a1f)"><path fill="#7fb77e" d="M 240.78125 207.933594 C 240.78125 207.933594 241.441406 208.730469 242.425781 210.078125 C 242.914062 210.753906 243.488281 211.566406 244.066406 212.523438 C 244.632812 213.480469 245.214844 214.585938 245.613281 215.839844 C 246.015625 217.089844 246.222656 218.308594 246.335938 219.433594 C 246.4375 220.558594 246.410156 221.570312 246.339844 222.414062 C 246.199219 224.101562 245.824219 225.109375 245.703125 225.074219 C 245.578125 225.039062 245.710938 224.03125 245.683594 222.386719 C 245.671875 221.566406 245.628906 220.589844 245.488281 219.527344 C 245.335938 218.46875 245.109375 217.289062 244.730469 216.125 C 243.96875 213.785156 242.796875 211.800781 242.035156 210.324219 C 241.246094 208.859375 240.78125 207.933594 240.78125 207.933594 " fill-opacity="1" fill-rule="nonzero"/></g></g></g></svg>